<svg class="animated" id="freepik_stories-voting" xmlns="http://www.w3.org/2000/svg" viewBox="0 0 500 500" version="1.1" xmlns:xlink="http://www.w3.org/1999/xlink" xmlns:svgjs="http://svgjs.com/svgjs"><style>svg#freepik_stories-voting:not(.animated) .animable {opacity: 0;}svg#freepik_stories-voting.animated #freepik--character-2--inject-33 {animation: 3s Infinite  linear wind;animation-delay: 0s;}svg#freepik_stories-voting.animated #freepik--character-1--inject-33 {animation: 3s Infinite  linear floating;animation-delay: 0s;}svg#freepik_stories-voting.animated #freepik--speech-bubble--inject-33 {animation: 1.5s Infinite  linear wind;animation-delay: 0s;}            @keyframes wind {                0% {                    transform: rotate( 0deg );                }                25% {                    transform: rotate( 1deg );                }                75% {                    transform: rotate( -1deg );                }            }                    @keyframes floating {                0% {                    opacity: 1;                    transform: translateY(0px);                }                50% {                    transform: translateY(-10px);                }                100% {                    opacity: 1;                    transform: translateY(0px);                }            }        </style><g id="freepik--Plants--inject-33" class="animable" style="transform-origin: 250px 266.913px;"><g id="freepik--plants--inject-33" class="animable" style="transform-origin: 30.2138px 266.913px;"><path d="M41.42,297.72l7.81-4.51s4.65-19.33,2.8-36.71c-2.61-24.45-18.7-33.65-24.82-31.54s-7.89,9.22,2.24,23.78C35.42,257.33,42.76,275.22,41.42,297.72Z" style="fill: rgb(0, 54, 121); transform-origin: 37.35px 261.194px;" id="el06smxwkiensv" class="animable"></path><g id="el52rj0rexbuj"><g style="opacity: 0.65; transform-origin: 37.35px 261.194px;" class="animable"><path d="M41.42,297.72l7.81-4.51s4.65-19.33,2.8-36.71c-2.61-24.45-18.7-33.65-24.82-31.54s-7.89,9.22,2.24,23.78C35.42,257.33,42.76,275.22,41.42,297.72Z" style="fill: rgb(255, 255, 255); transform-origin: 37.35px 261.194px;" id="elsi2df0j4d2" class="animable"></path></g></g><path d="M44.66,288.23h-.08a.54.54,0,0,1-.43-.63C48.43,265,40.56,239.7,30.8,229.16a.54.54,0,0,1,.8-.73c9.93,10.73,18,36.48,13.61,59.36A.54.54,0,0,1,44.66,288.23Z" style="fill: rgb(255, 255, 255); transform-origin: 38.5476px 258.243px;" id="elgj8flb8zmgh" class="animable"></path><path d="M21.75,309.07c-1.16.6-4.27-2.06-5.13-2.7a10.87,10.87,0,0,1-3.39-4.32,10.09,10.09,0,0,1-.6-6.14,23.92,23.92,0,0,1,.94-3.2c.35-1,.7-2.06,1.06-3.1a8,8,0,0,0,.62-3.15c-.17-2.16-2-3.76-3.67-5.15-1.85-1.54-3.75-3.53-3.61-6.12a9.13,9.13,0,0,1,2.56-5.31c1.31-1.5,2.85-2.82,4.06-4.41a6.39,6.39,0,0,0,1.5-4,6.63,6.63,0,0,0-.75-2.56,35.75,35.75,0,0,1-2.5-5.18c-.53-1.84-.33-4.09,1.15-5.32a6,6,0,0,1,4.51-.88,10.28,10.28,0,0,1,4.07,1.67c4,2.49,6.1,7.48,10.37,9.46a44,44,0,0,0,5.21,1.55,6.57,6.57,0,0,1,4.21,3.2c1.44,3.28-1.73,7.08-.78,10.53.85,3,3.71,4.35,5.21,7.14a6.45,6.45,0,0,1,.57,4,18.79,18.79,0,0,1-2,6.56,60.22,60.22,0,0,1-3.95,6.07S21.93,309,21.75,309.07Z" style="fill: rgb(0, 54, 121); transform-origin: 27.7117px 278.284px;" id="elyow2lhdz5ka" class="animable"></path><g id="elgp9ih6dsn0a"><g style="opacity: 0.3; transform-origin: 27.7117px 278.284px;" class="animable"><path d="M21.75,309.07c-1.16.6-4.27-2.06-5.13-2.7a10.87,10.87,0,0,1-3.39-4.32,10.09,10.09,0,0,1-.6-6.14,23.92,23.92,0,0,1,.94-3.2c.35-1,.7-2.06,1.06-3.1a8,8,0,0,0,.62-3.15c-.17-2.16-2-3.76-3.67-5.15-1.85-1.54-3.75-3.53-3.61-6.12a9.13,9.13,0,0,1,2.56-5.31c1.31-1.5,2.85-2.82,4.06-4.41a6.39,6.39,0,0,0,1.5-4,6.63,6.63,0,0,0-.75-2.56,35.75,35.75,0,0,1-2.5-5.18c-.53-1.84-.33-4.09,1.15-5.32a6,6,0,0,1,4.51-.88,10.28,10.28,0,0,1,4.07,1.67c4,2.49,6.1,7.48,10.37,9.46a44,44,0,0,0,5.21,1.55,6.57,6.57,0,0,1,4.21,3.2c1.44,3.28-1.73,7.08-.78,10.53.85,3,3.71,4.35,5.21,7.14a6.45,6.45,0,0,1,.57,4,18.79,18.79,0,0,1-2,6.56,60.22,60.22,0,0,1-3.95,6.07S21.93,309,21.75,309.07Z" style="fill: rgb(255, 255, 255); transform-origin: 27.7117px 278.284px;" id="eldt9wnovhs36" class="animable"></path></g></g><path d="M33.06,303.18h0a.52.52,0,0,1-.47-.56c1.87-20.28-6.57-43.2-13.21-50.07a.51.51,0,0,1,.74-.71c6.77,7,15.39,30.31,13.49,50.87A.51.51,0,0,1,33.06,303.18Z" style="fill: rgb(255, 255, 255); transform-origin: 26.5579px 277.433px;" id="el0hb4ipbwf3w" class="animable"></path><path d="M31.05,278.18l-.15,0A69.57,69.57,0,0,0,16.27,275a.5.5,0,0,1-.46-.55.49.49,0,0,1,.56-.47,70.41,70.41,0,0,1,14.88,3.18.52.52,0,0,1-.2,1Z" style="fill: rgb(255, 255, 255); transform-origin: 23.6887px 276.077px;" id="el9ofu5je0qz6" class="animable"></path></g><g id="freepik--plants--inject-33" class="animable" style="transform-origin: 469.786px 266.913px;"><path d="M458.58,297.72l-7.81-4.51s-4.65-19.33-2.8-36.71c2.61-24.45,18.7-33.65,24.82-31.54s7.89,9.22-2.24,23.78C464.58,257.33,457.24,275.22,458.58,297.72Z" style="fill: rgb(0, 54, 121); transform-origin: 462.65px 261.194px;" id="el1o8yxe5kmqxj" class="animable"></path><g id="el97aoh61u0eb"><g style="opacity: 0.65; transform-origin: 462.65px 261.194px;" class="animable"><path d="M458.58,297.72l-7.81-4.51s-4.65-19.33-2.8-36.71c2.61-24.45,18.7-33.65,24.82-31.54s7.89,9.22-2.24,23.78C464.58,257.33,457.24,275.22,458.58,297.72Z" style="fill: rgb(255, 255, 255); transform-origin: 462.65px 261.194px;" id="elv7jcfajqtu" class="animable"></path></g></g><path d="M455.34,288.23h.08a.54.54,0,0,0,.43-.63c-4.28-22.55,3.59-47.89,13.35-58.43a.54.54,0,0,0-.8-.73c-9.93,10.73-18,36.48-13.61,59.36A.54.54,0,0,0,455.34,288.23Z" style="fill: rgb(255, 255, 255); transform-origin: 461.452px 258.248px;" id="elho5mv3rgzze" class="animable"></path><path d="M478.25,309.07c1.16.6,4.27-2.06,5.13-2.7a10.87,10.87,0,0,0,3.39-4.32,10.09,10.09,0,0,0,.6-6.14,23.92,23.92,0,0,0-.94-3.2c-.35-1-.7-2.06-1.06-3.1a8,8,0,0,1-.62-3.15c.17-2.16,2-3.76,3.67-5.15,1.85-1.54,3.75-3.53,3.61-6.12a9.13,9.13,0,0,0-2.56-5.31c-1.31-1.5-2.85-2.82-4.06-4.41a6.39,6.39,0,0,1-1.5-4,6.63,6.63,0,0,1,.75-2.56,35.75,35.75,0,0,0,2.5-5.18c.53-1.84.33-4.09-1.15-5.32a6,6,0,0,0-4.51-.88,10.28,10.28,0,0,0-4.07,1.67c-4,2.49-6.1,7.48-10.37,9.46a44,44,0,0,1-5.21,1.55,6.57,6.57,0,0,0-4.21,3.2c-1.44,3.28,1.73,7.08.78,10.53-.85,3-3.71,4.35-5.21,7.14a6.45,6.45,0,0,0-.57,4,18.79,18.79,0,0,0,2,6.56,60.22,60.22,0,0,0,3.95,6.07S478.07,309,478.25,309.07Z" style="fill: rgb(0, 54, 121); transform-origin: 472.288px 278.284px;" id="elf8ze824yorl" class="animable"></path><g id="elren6kje9eui"><g style="opacity: 0.3; transform-origin: 472.288px 278.284px;" class="animable"><path d="M478.25,309.07c1.16.6,4.27-2.06,5.13-2.7a10.87,10.87,0,0,0,3.39-4.32,10.09,10.09,0,0,0,.6-6.14,23.92,23.92,0,0,0-.94-3.2c-.35-1-.7-2.06-1.06-3.1a8,8,0,0,1-.62-3.15c.17-2.16,2-3.76,3.67-5.15,1.85-1.54,3.75-3.53,3.61-6.12a9.13,9.13,0,0,0-2.56-5.31c-1.31-1.5-2.85-2.82-4.06-4.41a6.39,6.39,0,0,1-1.5-4,6.63,6.63,0,0,1,.75-2.56,35.75,35.75,0,0,0,2.5-5.18c.53-1.84.33-4.09-1.15-5.32a6,6,0,0,0-4.51-.88,10.28,10.28,0,0,0-4.07,1.67c-4,2.49-6.1,7.48-10.37,9.46a44,44,0,0,1-5.21,1.55,6.57,6.57,0,0,0-4.21,3.2c-1.44,3.28,1.73,7.08.78,10.53-.85,3-3.71,4.35-5.21,7.14a6.45,6.45,0,0,0-.57,4,18.79,18.79,0,0,0,2,6.56,60.22,60.22,0,0,0,3.95,6.07S478.07,309,478.25,309.07Z" style="fill: rgb(255, 255, 255); transform-origin: 472.288px 278.284px;" id="eli7k636nq0n" class="animable"></path></g></g><path d="M466.94,303.18h0a.52.52,0,0,0,.47-.56c-1.87-20.28,6.57-43.2,13.21-50.07a.51.51,0,0,0-.74-.71c-6.77,7-15.39,30.31-13.49,50.87A.51.51,0,0,0,466.94,303.18Z" style="fill: rgb(255, 255, 255); transform-origin: 473.443px 277.432px;" id="el7en7gdw2lrf" class="animable"></path><path d="M469,278.18l.15,0A69.57,69.57,0,0,1,483.73,275a.5.5,0,0,0,.46-.55.49.49,0,0,0-.56-.47,70.41,70.41,0,0,0-14.88,3.18.52.52,0,0,0,.2,1Z" style="fill: rgb(255, 255, 255); transform-origin: 476.311px 276.077px;" id="el5p5j026gkrw" class="animable"></path></g></g><g id="freepik--Floor--inject-33" class="animable" style="transform-origin: 250px 353.52px;"><ellipse id="freepik--floor--inject-33" cx="250" cy="353.52" rx="242.36" ry="139.93" style="fill: rgb(245, 245, 245); transform-origin: 250px 353.52px;" class="animable"></ellipse></g><g id="freepik--Shadows--inject-33" class="animable" style="transform-origin: 238.155px 376.63px;"><polygon id="freepik--Shadow--inject-33" points="194.2 377.75 263.33 337.84 177.93 288.54 108.8 328.45 194.2 377.75" style="fill: rgb(224, 224, 224); transform-origin: 186.065px 333.145px;" class="animable"></polygon><polygon id="freepik--shadow--inject-33" points="293.26 464.72 357.59 427.58 293.26 390.44 228.94 427.58 293.26 464.72" style="fill: rgb(224, 224, 224); transform-origin: 293.265px 427.58px;" class="animable"></polygon><ellipse id="freepik--shadow--inject-33" cx="391.41" cy="378.63" rx="56.12" ry="32.4" style="fill: rgb(224, 224, 224); transform-origin: 391.41px 378.63px;" class="animable"></ellipse><ellipse id="freepik--shadow--inject-33" cx="99.54" cy="375.93" rx="70.76" ry="40.85" style="fill: rgb(224, 224, 224); transform-origin: 99.54px 375.93px;" class="animable"></ellipse></g><g id="freepik--check-marks--inject-33" class="animable" style="transform-origin: 250.675px 101.765px;"><g id="freepik--check-marks--inject-33" class="animable" style="transform-origin: 250.675px 101.765px;"><path d="M20.74,93.26a.67.67,0,0,1-.34-.09.68.68,0,0,1-.35-.6V69.72a.68.68,0,0,1,.35-.6L40.06,57.77a.66.66,0,0,1,.69,0,.69.69,0,0,1,.34.6V81.23a.67.67,0,0,1-.35.59L21.09,93.17A.73.73,0,0,1,20.74,93.26Zm.69-23.15V91.38L39.71,80.83V59.56Z" style="fill: rgb(224, 224, 224); transform-origin: 30.57px 75.4663px;" id="elrn3gbuoee8" class="animable"></path><path d="M20.74,132.11a.59.59,0,0,1-.34-.1.67.67,0,0,1-.35-.59V108.56a.68.68,0,0,1,.35-.6L40.06,96.61a.71.71,0,0,1,.69,0,.69.69,0,0,1,.34.6v22.86a.69.69,0,0,1-.35.6L21.09,132A.64.64,0,0,1,20.74,132.11ZM21.43,109v21.26l18.28-10.55V98.4Z" style="fill: rgb(224, 224, 224); transform-origin: 30.57px 114.315px;" id="eldrcylc0qbf" class="animable"></path><polygon points="30.33 121.42 25.76 117.02 27.28 113.78 29.89 116.28 41.16 92.44 43.13 94.33 30.33 121.42" style="fill: rgb(0, 54, 121); transform-origin: 34.445px 106.93px;" id="elf0b45amoeo4" class="animable"></polygon><path d="M20.74,171a.67.67,0,0,1-.34-.09.7.7,0,0,1-.35-.6V147.4a.69.69,0,0,1,.35-.6l19.66-11.35a.69.69,0,0,1,1,.6v22.86a.68.68,0,0,1-.35.6L21.09,170.86A.73.73,0,0,1,20.74,171Zm.69-23.15v21.26l18.28-10.55V137.25Z" style="fill: rgb(224, 224, 224); transform-origin: 30.555px 153.188px;" id="el4cz2o3x5jak" class="animable"></path><path d="M478.91,93.17,459.26,81.82a.67.67,0,0,1-.35-.59V58.37a.69.69,0,0,1,.34-.6.66.66,0,0,1,.69,0L479.6,69.12a.68.68,0,0,1,.35.6V92.57a.68.68,0,0,1-.35.6.67.67,0,0,1-.34.09A.73.73,0,0,1,478.91,93.17ZM460.29,59.56V80.83l18.28,10.55V70.11Z" style="fill: rgb(224, 224, 224); transform-origin: 469.43px 75.4663px;" id="elvmi8i58puw" class="animable"></path><path d="M478.91,132l-19.65-11.34a.69.69,0,0,1-.35-.6V97.21a.69.69,0,0,1,.34-.6.71.71,0,0,1,.69,0L479.6,108a.68.68,0,0,1,.35.6v22.86a.67.67,0,0,1-.35.59.59.59,0,0,1-.34.1A.64.64,0,0,1,478.91,132ZM460.29,98.4v21.27l18.28,10.55V109Z" style="fill: rgb(224, 224, 224); transform-origin: 469.43px 114.335px;" id="ele94r6i3hug6" class="animable"></path><path d="M478.91,170.86l-19.65-11.35a.68.68,0,0,1-.35-.6V136.05a.69.69,0,0,1,1-.6L479.6,146.8a.69.69,0,0,1,.35.6v22.86a.7.7,0,0,1-.35.6.67.67,0,0,1-.34.09A.73.73,0,0,1,478.91,170.86Zm-18.62-33.61v21.26l18.28,10.55V147.8Z" style="fill: rgb(224, 224, 224); transform-origin: 469.43px 153.163px;" id="el6q6c4mt0zlg" class="animable"></path><polygon points="468.5 158.87 463.93 149.19 466.04 147.17 469.09 153.67 479.77 143.37 481.3 146.56 468.5 158.87" style="fill: rgb(0, 54, 121); transform-origin: 472.615px 151.12px;" id="eld78k34d5rhe" class="animable"></polygon><path d="M198.15,68,178.49,56.67a.68.68,0,0,1-.34-.59V33.22a.7.7,0,0,1,.35-.6.71.71,0,0,1,.69,0L198.84,44a.69.69,0,0,1,.34.6V67.42a.69.69,0,0,1-.34.6.74.74,0,0,1-.35.1A.7.7,0,0,1,198.15,68ZM179.53,34.41V55.68L197.8,66.23V45Z" style="fill: rgb(224, 224, 224); transform-origin: 188.665px 50.3253px;" id="elckr4fpmq2xe" class="animable"></path><polygon points="188.35 57.33 183.78 47.65 185.89 45.63 188.94 52.13 199.62 41.83 201.15 45.02 188.35 57.33" style="fill: rgb(0, 54, 121); transform-origin: 192.465px 49.58px;" id="ely5836o0ae5i" class="animable"></polygon><path d="M228.63,85.61,209,74.26a.67.67,0,0,1-.35-.59V50.81a.69.69,0,0,1,.34-.6.71.71,0,0,1,.69,0l19.66,11.35a.68.68,0,0,1,.35.6V85a.72.72,0,0,1-.69.7A.74.74,0,0,1,228.63,85.61ZM210,52V73.27l18.28,10.55V62.55Z" style="fill: rgb(224, 224, 224); transform-origin: 219.17px 67.9104px;" id="el98yja1uz5ko" class="animable"></path><path d="M259.08,103.2,239.43,91.86a.69.69,0,0,1-.35-.6V68.4a.69.69,0,0,1,.34-.6.71.71,0,0,1,.69,0l19.66,11.35a.68.68,0,0,1,.35.6v22.86a.67.67,0,0,1-.35.59.61.61,0,0,1-.34.1A.64.64,0,0,1,259.08,103.2ZM240.46,69.59V90.86l18.28,10.55V80.15Z" style="fill: rgb(224, 224, 224); transform-origin: 249.6px 85.5053px;" id="el8o2r2ywdbnb" class="animable"></path></g></g><g id="freepik--table-1--inject-33" class="animable" style="transform-origin: 187.17px 221.55px;"><g id="freepik--Cabin--inject-33" class="animable" style="transform-origin: 187.17px 221.55px;"><g id="freepik--Stand--inject-33" class="animable" style="transform-origin: 187.17px 265.39px;"><polygon points="181.23 161.39 126 324.95 122.05 327.23 177.29 163.67 181.23 161.39" style="fill: rgb(69, 90, 100); transform-origin: 151.64px 244.31px;" id="elkrklqglt8xr" class="animable"></polygon><polygon points="122.05 327.23 120.1 326.11 175.33 162.54 177.29 163.67 122.05 327.23" style="fill: rgb(38, 50, 56); transform-origin: 148.695px 244.885px;" id="elbkpymvn5ag8" class="animable"></polygon><polygon points="177.29 295.34 175.33 294.22 120.1 194.44 122.05 195.56 177.29 295.34" style="fill: rgb(38, 50, 56); transform-origin: 148.695px 244.89px;" id="el4wry2uakep7" class="animable"></polygon><polygon points="126 193.28 181.23 293.06 177.29 295.34 122.05 195.56 126 193.28" style="fill: rgb(69, 90, 100); transform-origin: 151.64px 244.31px;" id="elog8zgij928h" class="animable"></polygon><polygon points="195.06 233.16 195.06 237.72 254.24 203.55 254.24 199 195.06 233.16" style="fill: rgb(69, 90, 100); transform-origin: 224.65px 218.36px;" id="elbu27yh5d36c" class="animable"></polygon><polygon points="195.06 233.16 195.06 237.72 120.1 194.44 120.1 189.88 195.06 233.16" style="fill: rgb(55, 71, 79); transform-origin: 157.58px 213.8px;" id="el7ctx9sdhrhg" class="animable"></polygon><polygon points="254.24 203.55 199.01 367.12 195.06 369.39 250.3 205.83 254.24 203.55" style="fill: rgb(69, 90, 100); transform-origin: 224.65px 286.47px;" id="elbro9jbrcat4" class="animable"></polygon><polygon points="195.06 369.39 193.11 368.27 248.34 204.7 250.3 205.83 195.06 369.39" style="fill: rgb(38, 50, 56); transform-origin: 221.705px 287.045px;" id="ely20s87cvqi" class="animable"></polygon><polygon points="250.3 337.5 248.34 336.38 193.11 236.6 195.06 237.72 250.3 337.5" style="fill: rgb(38, 50, 56); transform-origin: 221.705px 287.05px;" id="eljqwgzc1uphh" class="animable"></polygon><polygon points="199.01 235.44 254.24 335.22 250.3 337.5 195.06 237.72 199.01 235.44" style="fill: rgb(69, 90, 100); transform-origin: 224.65px 286.47px;" id="elhr26qerque5" class="animable"></polygon></g><g id="freepik--cabin--inject-33" class="animable" style="transform-origin: 187.17px 153.445px;"><path d="M179.28,73.71l-15.8,9.12A86.77,86.77,0,0,0,120.1,158v31.91l3.94,2.28L183.22,158V76Z" style="fill: rgb(0, 54, 121); transform-origin: 151.66px 132.95px;" id="el16jmzh4wodc" class="animable"></path><g id="eljjajf4uwect"><path d="M179.28,73.71l-15.8,9.12A86.77,86.77,0,0,0,120.1,158v31.91l3.94,2.28L183.22,158V76Z" style="fill: rgb(255, 255, 255); opacity: 0.6; transform-origin: 151.66px 132.95px;" class="animable"></path></g><g id="el6si7jgu1p8k"><path d="M126.51,125.25,183.22,158h0V76l-3.94-2.28-15.8,9.12A86.73,86.73,0,0,0,126.51,125.25Z" style="fill: rgb(255, 255, 255); opacity: 0.6; transform-origin: 154.865px 115.86px;" class="animable"></path></g><path d="M124,192.16V160.25a86.76,86.76,0,0,1,43.39-75.14L183.22,76v82Z" style="fill: rgb(0, 54, 121); transform-origin: 153.61px 134.08px;" id="elif7eo6jrzm" class="animable"></path><g id="elwzv1sw6k37"><path d="M124,192.16V160.25a86.76,86.76,0,0,1,43.39-75.14L183.22,76v82Z" style="fill: rgb(255, 255, 255); opacity: 0.7; transform-origin: 153.61px 134.08px;" class="animable"></path></g><polygon points="191.12 226.33 124.04 187.6 183.22 153.44 250.3 192.16 191.12 226.33" style="fill: rgb(0, 54, 121); transform-origin: 187.17px 189.885px;" id="elon8bg2a09j" class="animable"></polygon><g id="elhb5bpzzqf3l"><polygon points="191.12 226.33 124.04 187.6 183.22 153.44 250.3 192.16 191.12 226.33" style="fill: rgb(255, 255, 255); opacity: 0.8; transform-origin: 187.17px 189.885px;" class="animable"></polygon></g><polygon points="191.12 230.89 191.12 226.33 124.04 187.6 124.04 192.16 191.12 230.89" style="fill: rgb(0, 54, 121); transform-origin: 157.58px 209.245px;" id="el38lpsm6jijs" class="animable"></polygon><g id="el9dos1mdnzx9"><polygon points="191.12 230.89 191.12 226.33 124.04 187.6 124.04 192.16 191.12 230.89" style="fill: rgb(255, 255, 255); opacity: 0.6; transform-origin: 157.58px 209.245px;" class="animable"></polygon></g><g id="elian6iyzw1v"><polygon points="146.3 189.47 173.92 205.42 209.43 184.92 181.81 168.97 146.3 189.47" style="fill: rgb(0, 54, 121); opacity: 0.3; transform-origin: 177.865px 187.195px;" class="animable"></polygon></g><polygon points="146.3 187.85 173.92 203.79 209.43 183.29 181.81 167.35 146.3 187.85" style="fill: rgb(250, 250, 250); transform-origin: 177.865px 185.57px;" id="elwgtycf19hvi" class="animable"></polygon><path d="M193.64,188.09a.27.27,0,0,1-.12,0l-3.94-2.28a.24.24,0,0,1,0-.42l3.94-2.28a.25.25,0,0,1,.24,0l4,2.28a.24.24,0,0,1,0,.42l-4,2.28A.24.24,0,0,1,193.64,188.09Zm-3.46-2.52,3.46,2,3.46-2-3.46-2Z" style="fill: rgb(0, 54, 121); transform-origin: 193.67px 185.588px;" id="eltigx6mo7y4" class="animable"></path><path d="M185.75,192.65l-.12,0-3.94-2.28a.26.26,0,0,1-.13-.21.23.23,0,0,1,.13-.21l3.94-2.28a.21.21,0,0,1,.24,0l3.95,2.28a.24.24,0,0,1,.12.21.27.27,0,0,1-.12.21l-3.95,2.28A.24.24,0,0,1,185.75,192.65Zm-3.46-2.52,3.46,2,3.46-2-3.46-2Z" style="fill: rgb(0, 54, 121); transform-origin: 185.75px 190.145px;" id="ela7psefvo2wk" class="animable"></path><path d="M177.86,197.2a.27.27,0,0,1-.12,0l-4-2.28a.24.24,0,0,1-.12-.21.27.27,0,0,1,.12-.21l4-2.28a.25.25,0,0,1,.24,0l4,2.28a.27.27,0,0,1,.12.21.24.24,0,0,1-.12.21l-4,2.28A.24.24,0,0,1,177.86,197.2Zm-3.46-2.52,3.46,2,3.46-2-3.46-2Z" style="fill: rgb(0, 54, 121); transform-origin: 177.86px 194.698px;" id="el8rz8lt4sr" class="animable"></path><path d="M187.69,182.68a.53.53,0,0,1-.24-.06l-11.84-6.83a.5.5,0,0,1-.18-.67.49.49,0,0,1,.67-.17l11.83,6.83a.48.48,0,0,1-.24.9Z" style="fill: rgb(224, 224, 224); transform-origin: 181.773px 178.781px;" id="elg8xe7jffu2q" class="animable"></path><path d="M179.83,187.2a.55.55,0,0,1-.24-.07l-11.83-6.83a.49.49,0,0,1,.48-.85l11.84,6.84a.48.48,0,0,1,.17.66A.47.47,0,0,1,179.83,187.2Z" style="fill: rgb(224, 224, 224); transform-origin: 173.933px 183.303px;" id="elt32wg74eud" class="animable"></path><path d="M172,191.7a.54.54,0,0,1-.25-.06l-11.83-6.83a.5.5,0,0,1-.18-.67.48.48,0,0,1,.66-.17l11.84,6.83a.49.49,0,0,1,.18.66A.48.48,0,0,1,172,191.7Z" style="fill: rgb(224, 224, 224); transform-origin: 166.08px 187.801px;" id="elysjrjlm8tql" class="animable"></path><polygon points="183.22 75.99 250.3 114.71 246.35 116.99 179.28 78.26 183.22 75.99" style="fill: rgb(0, 54, 121); transform-origin: 214.79px 96.49px;" id="el4rdqj5yufgi" class="animable"></polygon><g id="el3uaa3hfgq6m"><polygon points="183.22 75.99 250.3 114.71 246.35 116.99 179.28 78.26 183.22 75.99" style="fill: rgb(255, 255, 255); opacity: 0.8; transform-origin: 214.79px 96.49px;" class="animable"></polygon></g><polygon points="179.28 78.26 179.28 155.72 246.35 194.44 246.35 116.99 179.28 78.26" style="fill: rgb(0, 54, 121); transform-origin: 212.815px 136.35px;" id="el6vumhy6n58b" class="animable"></polygon><g id="eltngh4m06m9f"><polygon points="179.28 78.26 179.28 155.72 246.35 194.44 246.35 116.99 179.28 78.26" style="fill: rgb(255, 255, 255); opacity: 0.6; transform-origin: 212.815px 136.35px;" class="animable"></polygon></g><path d="M250.3,114.71l-15.8,9.12A86.79,86.79,0,0,0,191.12,199v31.91l3.94,2.27L254.24,199V117Z" style="fill: rgb(0, 54, 121); transform-origin: 222.68px 173.945px;" id="elw3gmkqpgw3" class="animable"></path><g id="els3ulu6tthhk"><path d="M250.3,114.71l-15.8,9.12A86.79,86.79,0,0,0,191.12,199v31.91l3.94,2.27L254.24,199V117Z" style="fill: rgb(255, 255, 255); opacity: 0.6; transform-origin: 222.68px 173.945px;" class="animable"></path></g><g id="el37ij3c68k7r"><path d="M197.53,166.25,254.24,199h0V117l-3.94-2.28-15.8,9.12A86.77,86.77,0,0,0,197.53,166.25Z" style="fill: rgb(255, 255, 255); opacity: 0.6; transform-origin: 225.885px 156.86px;" class="animable"></path></g><path d="M195.06,233.16V201.25a86.76,86.76,0,0,1,43.39-75.14L254.24,117v82Z" style="fill: rgb(0, 54, 121); transform-origin: 224.65px 175.08px;" id="elxh2m4z0tx18" class="animable"></path><g id="elu81u2k5suzk"><path d="M195.06,233.16V201.25a86.76,86.76,0,0,1,43.39-75.14L254.24,117v82Z" style="fill: rgb(255, 255, 255); opacity: 0.8; transform-origin: 224.65px 175.08px;" class="animable"></path></g></g><g id="freepik--Text--inject-33" class="animable" style="transform-origin: 225.445px 181.065px;"><path d="M220.92,166.8l-1.79,4.6V174l-.27.16v-2.63l-1.8-2.52.34-.19,1.3,1.87.3.47.28-.8,1.31-3.38Z" style="fill: rgb(69, 90, 100); transform-origin: 218.99px 170.48px;" id="elcht0ywwfae6" class="animable"></path><path d="M223.24,171.73c-1.33.76-2,0-2-2a4.9,4.9,0,0,1,2-4.38c1.33-.76,2,.11,2,2A4.8,4.8,0,0,1,223.24,171.73Zm0-6a4.37,4.37,0,0,0-1.76,3.89c0,1.52.5,2.52,1.76,1.78a4.25,4.25,0,0,0,1.76-3.81C225,166.08,224.52,165,223.24,165.72Z" style="fill: rgb(69, 90, 100); transform-origin: 223.242px 168.548px;" id="el6bl4spo3inp" class="animable"></path><path d="M229.72,161.73v3.36c0,1.92-.58,3.23-1.82,3.95s-1.83.08-1.83-1.84v-3.37l.26-.15v3.4c0,1.53.44,2.28,1.57,1.63a3.65,3.65,0,0,0,1.56-3.44v-3.39Z" style="fill: rgb(69, 90, 100); transform-origin: 227.895px 165.529px;" id="el3qw2uz7fi2b" class="animable"></path><path d="M234.34,165.24l-.3.18-.56-1.3c-.25-.6-.63-.73-1.29-.35l-1.23.71,0,0v2.67l-.26.15v-6.18l1.89-1.09c.8-.46,1.41-.26,1.41.92a3,3,0,0,1-1,2.25v0c.36,0,.59.25.74.59Zm-1.73-4.86-1.66,1,0,0v2.73l0,.06,1.6-.92a2.46,2.46,0,0,0,1.2-2.1C233.75,160.13,233.25,160,232.61,160.38Z" style="fill: rgb(69, 90, 100); transform-origin: 232.52px 163.551px;" id="elygyeaj4rmk9" class="animable"></path><path d="M209.09,197.54l-3.73-11.76,2.85-1.64,1.61,5.67c.64,2.23.9,3.16.91,3.21l.05,0c0-.07.26-1.29.89-4.19l1.63-7.6,2.71-1.57-3.73,16.07Z" style="fill: rgb(0, 54, 121); transform-origin: 210.685px 188.6px;" id="el7ksc409dhmo" class="animable"></path><path d="M221.64,176.1c3.2-1.84,5.51-.19,5.51,4.06s-2.31,8.57-5.51,10.41-5.5.2-5.5-4S218.45,178,221.64,176.1Zm0,11.31a6.78,6.78,0,0,0,3-5.79c0-2.51-1.26-3.37-3-2.38a6.8,6.8,0,0,0-3,5.82C218.66,187.54,219.91,188.41,221.64,187.41Z" style="fill: rgb(0, 54, 121); transform-origin: 221.645px 183.336px;" id="ele2to61wmoa" class="animable"></path><path d="M233.36,172.72v10.81l-2.5,1.45V174.16l-3.2,1.85v-3.1l8.89-5.14v3.11Z" style="fill: rgb(0, 54, 121); transform-origin: 232.105px 176.375px;" id="elp9qid45av8o" class="animable"></path><path d="M237.85,167l7.6-4.39v3.1l-5.1,2.94v2.39l3.76-2.17v2.78l-3.76,2.17v2.54l5.18-3v3.11l-7.68,4.43Z" style="fill: rgb(0, 54, 121); transform-origin: 241.69px 171.755px;" id="eljtmk76wijx" class="animable"></path><path d="M215.93,204.15l-.25.14v-5.4h0l-.32,1.24-1.53,5.31h0l-1.54-3.56-.32-.85h0v5.42l-.26.14v-6.18l.24-.13,1.65,3.81.24.61h0l.23-.88,1.66-5.72.23-.14Z" style="fill: rgb(69, 90, 100); transform-origin: 213.835px 202.275px;" id="elmh3fsx60al" class="animable"></path><path d="M220.74,201.37l-.29.17-.53-1.33,0,0-2.6,1.5v0l-.52,1.93-.29.17,2-7.33.23-.14Zm-.91-1.46,0,0-1-2.61-.12-.47h0l-.14.61-1,3.8,0,.06Z" style="fill: rgb(69, 90, 100); transform-origin: 218.625px 200.075px;" id="elhw1ew7tkdym" class="animable"></path><path d="M224,193.63l-1.68,1,0,0v5.81l-.26.15v-5.82l0,0-1.68,1v-.32L224,193.3Z" style="fill: rgb(69, 90, 100); transform-origin: 222.19px 196.945px;" id="ele101odmxf6d" class="animable"></path><path d="M227.82,191.43l-1.68,1,0,0v5.81l-.26.15v-5.86l-1.67,1v-.33l3.58-2.07Z" style="fill: rgb(69, 90, 100); transform-origin: 226.015px 194.76px;" id="elvzrfk9eefei" class="animable"></path><path d="M231.57,195.12l-3.12,1.8v-6.18l3.12-1.8v.33l-2.89,1.66,0,0v2.52l0,.05,2.61-1.51v.33l-2.61,1.51,0,0v2.53l0,.05,2.89-1.67Z" style="fill: rgb(69, 90, 100); transform-origin: 230.01px 192.93px;" id="elgf11wyobq3a" class="animable"></path><path d="M236.1,192.5l-.3.18-.56-1.3c-.25-.6-.63-.73-1.29-.35l-1.23.71,0,0v2.67l-.26.15v-6.18l1.89-1.09c.8-.46,1.41-.26,1.41.92a3,3,0,0,1-1,2.25v0c.36,0,.6.25.74.59Zm-1.73-4.85-1.66.95,0,0v2.73l0,.06,1.6-.92a2.46,2.46,0,0,0,1.2-2.1C235.51,187.39,235,187.28,234.37,187.65Z" style="fill: rgb(69, 90, 100); transform-origin: 234.28px 190.811px;" id="elu4stxo98bv" class="animable"></path><path d="M238.19,191.37a1.65,1.65,0,0,1-1.77.14l.21-.4a1.41,1.41,0,0,0,1.55-.06,2.6,2.6,0,0,0,1.45-2.12c0-.56-.32-.85-1-.71l-.85.17c-.84.15-1.29,0-1.29-.8a3.1,3.1,0,0,1,1.69-2.53,1.39,1.39,0,0,1,1.55-.1l-.2.39a1.17,1.17,0,0,0-1.34,0,2.55,2.55,0,0,0-1.43,2c0,.66.46.69,1.19.55l.78-.15c.88-.16,1.2.24,1.2.93A3.1,3.1,0,0,1,238.19,191.37Z" style="fill: rgb(69, 90, 100); transform-origin: 238.175px 188.237px;" id="elp3iv4b1swh" class="animable"></path><polygon points="240.05 155.54 240.8 157.13 242.48 156.49 241.26 158.76 241.55 160.82 240.05 160.64 238.55 162.55 238.84 160.16 237.63 159.29 239.3 158 240.05 155.54" style="fill: rgb(0, 54, 121); transform-origin: 240.055px 159.045px;" id="eldad938exn6" class="animable"></polygon><polygon points="211.2 172.2 210.45 174.66 208.77 175.95 209.98 176.82 209.7 179.21 211.2 177.3 212.69 177.48 212.41 175.42 213.62 173.15 211.95 173.79 211.2 172.2" style="fill: rgb(0, 54, 121); transform-origin: 211.195px 175.705px;" id="elnqvq233dab9" class="animable"></polygon></g></g></g><g id="freepik--table-2--inject-33" class="animable" style="transform-origin: 291.375px 355.515px;"><g id="freepik--Box--inject-33" class="animable" style="transform-origin: 291.375px 355.515px;"><g id="freepik--stand--inject-33" class="animable" style="transform-origin: 291.375px 379.515px;"><polygon points="335.42 341.29 297.03 458.15 293.25 460.34 331.64 343.47 335.42 341.29" style="fill: rgb(69, 90, 100); transform-origin: 314.335px 400.815px;" id="el7hbo14s5eq3" class="animable"></polygon><polygon points="293.25 460.34 291.38 459.26 329.76 342.4 331.64 343.47 293.25 460.34" style="fill: rgb(38, 50, 56); transform-origin: 311.51px 401.37px;" id="elxj2wbb10dg" class="animable"></polygon><polygon points="346.22 429.75 344.35 428.68 306.52 356.6 308.4 357.68 346.22 429.75" style="fill: rgb(38, 50, 56); transform-origin: 326.37px 393.175px;" id="elzlo4ombteb" class="animable"></polygon><polygon points="312.18 355.49 350.01 427.57 346.23 429.75 308.4 357.67 312.18 355.49" style="fill: rgb(69, 90, 100); transform-origin: 329.205px 392.62px;" id="eliirly18gn2a" class="animable"></polygon><polygon points="282.46 310.71 244.07 427.57 240.29 429.75 278.68 312.89 282.46 310.71" style="fill: rgb(69, 90, 100); transform-origin: 261.375px 370.23px;" id="eldyfl8rzf205" class="animable"></polygon><polygon points="240.29 429.75 238.42 428.68 276.81 311.81 278.68 312.89 240.29 429.75" style="fill: rgb(38, 50, 56); transform-origin: 258.55px 370.78px;" id="eldw0fl0be3zu" class="animable"></polygon><polygon points="293.26 399.17 291.39 398.09 253.56 326.01 255.44 327.09 293.26 399.17" style="fill: rgb(38, 50, 56); transform-origin: 273.41px 362.59px;" id="elf2q9t1ut1wq" class="animable"></polygon><polygon points="259.22 324.9 297.05 396.98 293.26 399.17 255.44 327.09 259.22 324.9" style="fill: rgb(69, 90, 100); transform-origin: 276.245px 362.035px;" id="el05kbc98se2ew" class="animable"></polygon><polygon points="289.48 370.78 228.94 335.83 293.26 298.69 353.81 333.64 289.48 370.78" style="fill: rgb(69, 90, 100); transform-origin: 291.375px 334.735px;" id="elsmpl58lcg6" class="animable"></polygon><polygon points="289.48 375.15 289.48 370.78 353.81 333.64 353.81 338.01 289.48 375.15" style="fill: rgb(55, 71, 79); transform-origin: 321.645px 354.395px;" id="el0dual79vmnfv" class="animable"></polygon><polygon points="289.48 375.15 289.48 370.78 228.94 335.83 228.96 340.18 289.48 375.15" style="fill: rgb(38, 50, 56); transform-origin: 259.21px 355.49px;" id="elr683wm36vfj" class="animable"></polygon></g><g id="freepik--box--inject-33" class="animable" style="transform-origin: 291.375px 308.55px;"><g id="freepik--box--inject-33" class="animable" style="transform-origin: 291.375px 308.55px;"><g id="freepik--box--inject-33" class="animable" style="transform-origin: 291.375px 308.55px;"><polygon points="289.51 366.41 289.51 313.99 237.95 284.32 237.95 336.74 289.51 366.41" style="fill: rgb(0, 54, 121); transform-origin: 263.73px 325.365px;" id="elvbkqtzns5jc" class="animable"></polygon><polygon points="289.51 313.99 344.81 282.04 344.81 334.47 289.51 366.41 289.51 313.99" style="fill: rgb(0, 54, 121); transform-origin: 317.16px 324.225px;" id="elwgp0z11lujb" class="animable"></polygon><g id="el61ykckdigm8"><polygon points="289.51 313.99 344.81 282.04 344.81 334.47 289.51 366.41 289.51 313.99" style="fill: rgb(255, 255, 255); opacity: 0.15; transform-origin: 317.16px 324.225px;" class="animable"></polygon></g><polygon points="289.51 313.99 236.5 283.48 293.25 250.69 346.25 281.2 289.51 313.99" style="fill: rgb(0, 54, 121); transform-origin: 291.375px 282.34px;" id="eljy7729x3wt" class="animable"></polygon><g id="el2s05iqlm1m5"><polygon points="289.51 313.99 236.5 283.48 293.25 250.69 346.25 281.2 289.51 313.99" style="fill: rgb(255, 255, 255); opacity: 0.3; transform-origin: 291.375px 282.34px;" class="animable"></polygon></g><polygon points="289.51 313.99 289.51 323.35 236.5 292.85 236.5 283.48 289.51 313.99" style="fill: rgb(0, 54, 121); transform-origin: 263.005px 303.415px;" id="elrhi2geyxc2l" class="animable"></polygon><polygon points="346.25 281.2 289.51 313.99 289.51 323.35 346.25 290.57 346.25 281.2" style="fill: rgb(0, 54, 121); transform-origin: 317.88px 302.275px;" id="elgyshxxtk7oc" class="animable"></polygon><g id="elg0x4ux42fww"><polygon points="346.25 281.2 289.51 313.99 289.51 323.35 346.25 290.57 346.25 281.2" style="fill: rgb(255, 255, 255); opacity: 0.15; transform-origin: 317.88px 302.275px;" class="animable"></polygon></g><g id="elrzco1c20uv"><path d="M238,293.68v2.06l51.56,29.67v-2.06Zm106.86-2.28-55.3,32v2.06l55.3-32Z" style="opacity: 0.1; transform-origin: 291.43px 308.43px;" class="animable"></path></g></g></g><polygon points="274.34 287.77 281.91 292.14 308.4 276.84 300.83 272.48 274.34 287.77" style="fill: rgb(0, 54, 121); transform-origin: 291.37px 282.31px;" id="elbnw85hi0aop" class="animable"></polygon><g id="elnt56rcmm0u"><polygon points="306.51 277.94 308.4 276.84 300.83 272.48 300.84 274.68 306.51 277.94" style="opacity: 0.2; transform-origin: 304.615px 275.21px;" class="animable"></polygon></g><g id="eltydsjfj1z6h"><polygon points="276.24 288.86 300.83 274.66 300.83 272.48 274.34 287.77 276.24 288.86" style="opacity: 0.1; transform-origin: 287.585px 280.67px;" class="animable"></polygon></g><path d="M301.3,344.33l-3.57-11.28,2.73-1.57,1.54,5.43c.62,2.14.86,3,.87,3.08l.05,0c0-.07.25-1.24.85-4l1.56-7.29,2.6-1.5-3.57,15.41Z" style="fill: rgb(250, 250, 250); transform-origin: 302.83px 335.765px;" id="elrjbtswf0qpb" class="animable"></path><path d="M313.34,323.77c3.06-1.76,5.27-.18,5.27,3.9s-2.21,8.21-5.27,10-5.28.18-5.28-3.89S310.28,325.54,313.34,323.77Zm0,10.85a6.51,6.51,0,0,0,2.86-5.56c0-2.4-1.2-3.23-2.86-2.28a6.52,6.52,0,0,0-2.86,5.58C310.48,334.74,311.68,335.58,313.34,334.62Z" style="fill: rgb(250, 250, 250); transform-origin: 313.335px 330.727px;" id="eljtsg35u5stn" class="animable"></path><path d="M324.58,320.52v10.37l-2.41,1.39V321.91l-3.05,1.77v-3l8.51-4.92v3Z" style="fill: rgb(250, 250, 250); transform-origin: 323.375px 324.02px;" id="elpb2w5duh06n" class="animable"></path><path d="M328.88,315.07l7.29-4.21v3l-4.89,2.82v2.29l3.6-2.08v2.67l-3.6,2.08v2.44l5-2.87v3l-7.36,4.25Z" style="fill: rgb(250, 250, 250); transform-origin: 332.58px 319.66px;" id="el6jrn8q7baah" class="animable"></path></g><polygon id="freepik--Vote--inject-33" points="307.53 273.72 305.15 278.68 281.91 292.14 277.06 289.34 290.08 261.85 307.53 273.72" style="fill: rgb(250, 250, 250); transform-origin: 292.295px 276.995px;" class="animable"></polygon></g></g><g id="freepik--character-2--inject-33" class="animable" style="transform-origin: 371.4px 236.873px;"><g id="freepik--Character--inject-33" class="animable" style="transform-origin: 371.4px 236.873px;"><g id="freepik--Bottom--inject-33" class="animable" style="transform-origin: 387.178px 289.843px;"><path d="M427,353.41c.46,2.26,1.31,4.87,2,9.48s-.38,4.8,2.94,16.36c2,6.93,1.63,9.69-3,15.54-5,6.27-10.19,5-13.59-1.94-2.9-5.93-2.73-8.69-2.74-14.84s-.07-7.94-.38-12.82c-.27-4.3.12-7.24-.17-10.53Z" style="fill: rgb(55, 71, 79); transform-origin: 422.575px 376.128px;" id="elczh8h7dp5i" class="animable"></path><path d="M428.54,370.26c-.93-6-1.15-12.13-1.49-16.16-.76-9,1.25-26.85-.16-40.42l-25.11-2.29c.84,5.29,7.78,29.21,10.3,43.65,0,0,1,19.6,2.37,28.23a1.84,1.84,0,0,0,2.55,1.28,18.08,18.08,0,0,1,11.37-.69,1.79,1.79,0,0,0,2.42-1.58C430.74,379.09,429.24,374.73,428.54,370.26Z" style="fill: rgb(177, 102, 104); transform-origin: 416.285px 348.051px;" id="elwy3n2ro0vih" class="animable"></path><path d="M356.5,306.54c.93,18.5,1.12,32.61.92,40.58a31,31,0,0,1-2.19,11.51c-1.33,3.38-3.64,8.26-5.56,10.41,0,0-6.19,6.63-5,7.25s13.95,1.41,19,0,7-5.66,8.92-13.41,3.64-19.1,3.64-19.1a5.17,5.17,0,0,1-.49-1.33c-.61-2.27,1.81-13.63,2.47-19.28Z" style="fill: rgb(177, 102, 104); transform-origin: 361.364px 341.809px;" id="el94om8m9qrvr" class="animable"></path><path d="M380.77,355.2c-.2,1.92-1.65,4.19-2.14,7.19a52.37,52.37,0,0,0-.7,10.35c.11,4.24.12,4.84.12,4.84l-1.31,0s-.16-6.12-.22-8.81-1.36-5.05-2.65-5.31C373.87,363.49,374.41,355.36,380.77,355.2Z" style="fill: rgb(38, 50, 56); transform-origin: 377.32px 366.39px;" id="elrw4916uig1" class="animable"></path><path d="M376.06,342.73c.76,2.17,2.72,5,3.85,7.1a10,10,0,0,1,1.21,3.91,5.33,5.33,0,0,1-1.75,3.87c-1.05,1-1.81,1.83-3.07,3-2.63,2.42-3.73,4.55-5.48,10.16-1,3.34-2.71,6.37-5.67,8-2.31,1.26-8.65,3.4-16.44,3.07-6.47-.27-9-3.09-6.49-5.52s6.7-6.74,7.45-7.25a18.47,18.47,0,0,1,6.86,1.35c3.58,1.64,4.68,3.77,8.52,2,3.48-1.64,5.32-7.63,5.62-17.16C371,344.81,376.06,342.73,376.06,342.73Z" style="fill: rgb(55, 71, 79); transform-origin: 361.192px 362.302px;" id="elj5ucrwhrm0k" class="animable"></path><path d="M409.48,180.84c.45,2.36.95,4.56,1.81,5.73,5.24,7.16,10.59,15.82,11.63,29.22,2.52,32.33,2.63,63.55,2.63,63.55.26,2.85,3.68,9,3.25,26.23-.33,13-1.28,32.87-1.28,32.87s-11.42,4.64-19.54,1.63c-3.35-12.36-8.71-41.77-12-55.93-3.49-14.91-5.89-32.91-5.89-32.91l-7.17,28a78.69,78.69,0,0,1,.84,19.69c-.92,8.69-6.5,34.73-6.5,34.73s-13.56,2.91-20.57-1.87c0,0-1.7-43.27-1.83-52.82s-1.62-62.18,4.07-87.19c.26-1.16,1.05-9.07,1.05-9.07C366.83,188.27,400.42,187.05,409.48,180.84Z" style="fill: rgb(55, 71, 79); transform-origin: 391.713px 260.963px;" id="eliwydq7j2hc" class="animable"></path><path d="M427.74,333.65c-3.51,3.27-16.73,4.32-21,2.1l1.71,7a21.26,21.26,0,0,0,10.31,1.36c6.21-.61,8.77-3.38,8.77-3.38Z" style="fill: rgb(69, 90, 100); transform-origin: 417.24px 338.951px;" id="elqb6o2i8i59j" class="animable"></path><path d="M378.22,329.33c-3.66,1.26-17.84.4-21.88-2l.25,5.8a41.12,41.12,0,0,0,11.69,3.08c6.18.58,8.82-1.18,8.82-1.18Z" style="fill: rgb(69, 90, 100); transform-origin: 367.28px 331.829px;" id="elbyp68w4ly3" class="animable"></path><path d="M390.06,251.23l-4.43-31.95a20.22,20.22,0,0,1-16.26-7.58s-.16,8,13,11.51l5.2,29.44-4.71,26.56Z" style="fill: rgb(38, 50, 56); transform-origin: 379.715px 245.455px;" id="elott8du00mpg" class="animable"></path></g><g id="freepik--Top--inject-33" class="animable" style="transform-origin: 371.4px 147.672px;"><g id="freepik--Arm--inject-33" class="animable" style="transform-origin: 336.865px 160.237px;"><path d="M330.15,159.8c-3.71-2.79-6.53-4.87-10.82-11.72a23.65,23.65,0,0,0-4.16-4.35,17.15,17.15,0,0,1-3.61-4.94c-.39-.93-2.76.07-2.3,3.29.35,2.39,1.8,4.57,2.38,5.93-1.26,0-3.28-.17-6,0s-8.17-.12-7.17,3c.22.7.79,1.29.81,2a5.15,5.15,0,0,1-.17,1,3.69,3.69,0,0,0,1.31,3.54,2.11,2.11,0,0,1,.65.61c.28.54.07,1.2.19,1.77a3.7,3.7,0,0,0,.95,1.73c.67.72.89.47,1.56,1.19.44.47.53,1.51,1.56,2.2.77.51,2.62.57,4.59.54s3.09.62,5.71.54c2.06-.06,4,1.1,7.43,4.62,7.68,7.32,8.66,9.71,15.55,15.3a22.46,22.46,0,0,0,1.9,1.41c6.52,4.49,9.1,1,14.25-8.07,6.33-11.15,9.61-17.47,9.61-17.47l10.16-30.29c-6.26.71-13.62,7.79-19.18,15.82-2.61,3.77-13.42,20.37-13.42,20.37C338.25,165.53,333.87,162.59,330.15,159.8Z" style="fill: rgb(177, 102, 104); transform-origin: 336.439px 160.521px;" id="el8kzuu5ca8ji" class="animable"></path><path d="M308.28,149.86a4.84,4.84,0,0,1,.8.3,2.7,2.7,0,0,1,.72.51l-.08,0a5.49,5.49,0,0,1,3.67.57,3,3,0,0,1,.74.64,1.44,1.44,0,0,1,.34,1,1.08,1.08,0,0,1-.18.54,1,1,0,0,1-.51.3c-.32.07-.61.11-.91.17-.59.12-1.17.32-1.78.46a6.29,6.29,0,0,1-1.88.14,14.81,14.81,0,0,1-3.63-.73,12.3,12.3,0,0,0,1.82.28c.61.07,1.21.14,1.82.15A7.53,7.53,0,0,0,311,154c.59-.14,1.17-.35,1.78-.49.31-.07.63-.12.9-.19s.35-.17.39-.47c.05-.5-.4-1-.88-1.28a5.67,5.67,0,0,0-3.45-.71h-.05l0,0a2.31,2.31,0,0,0-.63-.52A5.34,5.34,0,0,0,308.28,149.86Z" style="fill: rgb(154, 74, 77); transform-origin: 310.026px 152.184px;" id="elm6jmo2ztrx" class="animable"></path><path d="M312.56,153.72a1.27,1.27,0,0,1,1.45.49,1.47,1.47,0,0,1-.06,1.63,5.28,5.28,0,0,1-2.33,2.25,4.67,4.67,0,0,1-1.64.2q-.8,0-1.59-.06c-1.06-.07-2.11-.14-3.17-.26,1.06-.05,2.12-.06,3.18-.07a10.39,10.39,0,0,0,3.08-.2,4.25,4.25,0,0,0,1.24-.84,8.08,8.08,0,0,0,1-1.18,1.25,1.25,0,0,0,.15-1.37A1.19,1.19,0,0,0,312.56,153.72Z" style="fill: rgb(154, 74, 77); transform-origin: 309.724px 155.976px;" id="eli03rz8nuw7" class="animable"></path><path d="M312.1,157.6a1.78,1.78,0,0,1,1.45,0,.93.93,0,0,1,.48.62,2.25,2.25,0,0,1,0,.78,3,3,0,0,1-.85,1.24,3.32,3.32,0,0,1-1.22.91,5.49,5.49,0,0,1-1.49.08,13.64,13.64,0,0,0-1.4.16c-.94.15-1.89.31-2.84.44.92-.3,1.84-.54,2.78-.75a8.6,8.6,0,0,1,1.45-.23,5.38,5.38,0,0,0,1.37-.1,3,3,0,0,0,1.08-.77,3.16,3.16,0,0,0,.81-1.06,1.75,1.75,0,0,0,0-.65.68.68,0,0,0-.33-.5A1.75,1.75,0,0,0,312.1,157.6Z" style="fill: rgb(154, 74, 77); transform-origin: 310.147px 159.638px;" id="el61thfnrdtu4" class="animable"></path><path d="M312.3,160.74a.77.77,0,0,1,.44.43,1.26,1.26,0,0,1,.07.64,4.83,4.83,0,0,1-.41,1.14,5.69,5.69,0,0,1-.33.52,1.49,1.49,0,0,1-.47.43,4.78,4.78,0,0,1-1.07.51l.88-.77a1.82,1.82,0,0,0,.35-.39,4.67,4.67,0,0,0,.27-.49,6.55,6.55,0,0,0,.46-1A.91.91,0,0,0,312.3,160.74Z" style="fill: rgb(154, 74, 77); transform-origin: 311.677px 162.575px;" id="elbddv7fx4lgu" class="animable"></path><path d="M314.27,152.83a6.72,6.72,0,0,0,5.94,7.29,7.75,7.75,0,0,1-3.7-.81,6.66,6.66,0,0,1-2.43-1.93l-.19.8c-.25-.42-.37-.78-1.51-.67a8.33,8.33,0,0,0,1.34-1.6c.34-.66.83-1.7-.57-2.32a3.36,3.36,0,0,0,.85-.22A.44.44,0,0,0,314.27,152.83Z" style="fill: rgb(154, 74, 77); transform-origin: 316.295px 156.477px;" id="eljej8uupz2ii" class="animable"></path><path d="M375.38,130.76c-8.86,1.62-12,1.69-21.14,16.49-5.63,9.09-12.47,20.18-12.47,20.18l-6.56-4c1.22,1.23,3.61,7.56,2,11.46a11.2,11.2,0,0,1-5.19,5.53,71.91,71.91,0,0,0,7.19,6.55c3.56,2.71,5.45,3.12,7.61,2.48s4.27-3,9.51-9.21c5.39-6.39,11.7-15.8,11.7-15.8Z" style="fill: rgb(0, 54, 121); transform-origin: 353.7px 160.237px;" id="elwebkw7uhh48" class="animable"></path><g id="el1iegedi365a"><path d="M375.38,130.76c-8.86,1.62-12,1.69-21.14,16.49-5.63,9.09-12.47,20.18-12.47,20.18l-6.56-4c1.22,1.23,3.61,7.56,2,11.46a11.2,11.2,0,0,1-5.19,5.53,71.91,71.91,0,0,0,7.19,6.55c3.56,2.71,5.45,3.12,7.61,2.48s4.27-3,9.51-9.21c5.39-6.39,11.7-15.8,11.7-15.8Z" style="fill: rgb(255, 255, 255); opacity: 0.55; transform-origin: 353.7px 160.237px;" class="animable"></path></g><g id="el72fc9xh2cgt"><path d="M341.77,167.43c3.49,2.13,6.84,6.65,7.43,9.32a13.26,13.26,0,0,0-6.27-11.2Z" style="fill: rgb(0, 54, 121); opacity: 0.35; transform-origin: 345.485px 171.15px;" class="animable"></path></g><g id="elflyybfm2m0r"><path d="M335.28,183.48a9.67,9.67,0,0,0,1.65-1.1,10.73,10.73,0,0,0,2.6-3,11.71,11.71,0,0,0,1.38-7.4c0-.13.12-.13.15,0a10.73,10.73,0,0,1-1.18,8,11.52,11.52,0,0,1-2.77,3.13,12,12,0,0,1-1.42.94l-.49-.44Z" style="fill: rgb(0, 54, 121); opacity: 0.35; transform-origin: 338.284px 177.966px;" class="animable"></path></g></g><path id="freepik--Tshirt--inject-33" d="M394.81,127.15l14.16,4.4c2.43.83,11.62,6.44,8.41,20.26-1.06,4.58-2.51,11-3.82,17.41-1,4.9,2.67,14.33,5.63,29.35,0,0-12.14,9.66-36.27,6.94-18.41-2.08-25.33-10-25.33-10-.18-14.33,2.86-23.4,4.22-28.86,0,0-2.06-2.57-2.18-8.4-.11-6.11,3.56-11.46,9-18.38a62,62,0,0,1,10-10.24Z" style="fill: rgb(250, 250, 250); transform-origin: 388.386px 166.571px;" class="animable"></path><g id="freepik--Head--inject-33" class="animable" style="transform-origin: 390.713px 106.433px;"><path d="M363.25,109.89c-.61-2-2.91-2.22-3.4-5s1-4.58,3.22-5.8,2.69-3.43,2.24-8,2.81-7.32,6.58-7.88c1.86-.27,4-.08,5.33-1.44a9.24,9.24,0,0,0,1.25-2.13c1.8-3.32,5.14-4.77,9.61-4.74A15.16,15.16,0,0,1,393.94,76a15.35,15.35,0,0,1,5.65,3.76c2.45-.39,7.06.14,9.56,2.34a10,10,0,0,1,4.09,6.62c.42,2.71.17,4.25,1.34,5.72,2.38,3,5.35,3,6.7,5.52,1.92,3.6-2.81,6.69-.4,11a6.54,6.54,0,0,1-3.61,9.56c-2.1.8-3.9-.28-6.9.84s-3.12,3.41-6.94,5c-3.12,1.25-5.79-1-8.32-1.33-3.46-.4-2.35.74-5.76-1.45-1.17-.75-1.87-2.09-3.05-2.83-3.74-2.24-5-1-9.5.6-1.18.43-5.1,1.52-7.77-1.44a10.22,10.22,0,0,1-2.32-6.91c-.76,2.5-6.5,2.45-7.08-1.52A2,2,0,0,0,363.25,109.89Z" style="fill: rgb(38, 50, 56); transform-origin: 390.713px 100.817px;" id="elr8ylf5ceuk" class="animable"></path><path d="M400.22,124.1c0-2.28.46-8.08.46-8.08.84,2.14,4.72,2.22,6.62-.42,2.4-3.34,2.39-7.31.76-9.73-1.81-2.68-6.11-2.75-8,1.4-2.84.53-3.91-3.82-1.58-7.81.05-9.53-12.9-6.32-15.51-14.88a14.88,14.88,0,0,0-10.54,7.83c-1,2.12-1.17,3.42-.93,7.71.09,1.67-1.06,3.61-1.39,5.82-1.53,10.13,1.45,14.17,4.77,16.14,1.77,1,4.07,1.73,8.3,2,0,0-.08,1.9-.16,3.16s-.22,1.81-1.74,2c-.52.07-1.1.11-1.1.11s-7,6.46,2.22,8.15c13.76,2.52,19.26-5.87,19.87-8C400.15,129.06,400.12,127.92,400.22,124.1Z" style="fill: rgb(177, 102, 104); transform-origin: 389.451px 111.274px;" id="elzs197xde1on" class="animable"></path><path d="M387.28,113l-5.08,1.36a2.58,2.58,0,0,0,3.17,2A2.75,2.75,0,0,0,387.28,113Z" style="fill: rgb(154, 74, 77); transform-origin: 384.787px 114.72px;" id="elk1wqz2qxtlc" class="animable"></path><path d="M386.91,114.12a2.89,2.89,0,0,0-3,2.11,2.41,2.41,0,0,0,1.46,0,2.71,2.71,0,0,0,1.92-2.1C387.16,114.16,387,114.13,386.91,114.12Z" style="fill: rgb(242, 143, 143); transform-origin: 385.6px 115.228px;" id="el0lhzin5dd0u" class="animable"></path><path d="M374.05,97.65l3.73-1.55A1.93,1.93,0,0,0,375.21,95,2.12,2.12,0,0,0,374.05,97.65Z" style="fill: rgb(38, 50, 56); transform-origin: 375.855px 96.2467px;" id="elwh9mfov7o8" class="animable"></path><path d="M392.2,98.89,388.58,97a2,2,0,0,1,2.71-.89A2.16,2.16,0,0,1,392.2,98.89Z" style="fill: rgb(38, 50, 56); transform-origin: 390.487px 97.3886px;" id="el77zoeefrymm" class="animable"></path><path d="M383.16,124.06c6.43-.34,13.67-2.61,16-6.1,0,0-.94,3.55-3.55,5.05a25.57,25.57,0,0,1-12.51,3.14Z" style="fill: rgb(154, 74, 77); transform-origin: 391.13px 122.056px;" id="elg09w3312xnf" class="animable"></path><path d="M390.06,103.23a1.71,1.71,0,1,1-1.71-1.7A1.71,1.71,0,0,1,390.06,103.23Z" style="fill: rgb(38, 50, 56); transform-origin: 388.35px 103.24px;" id="elj60ysg5fbk" class="animable"></path><path d="M377.78,102.44a1.71,1.71,0,1,1-1.7-1.71A1.7,1.7,0,0,1,377.78,102.44Z" style="fill: rgb(38, 50, 56); transform-origin: 376.07px 102.44px;" id="elprtdvkkxsfk" class="animable"></path><polygon points="375.79 109.12 381.29 111.45 382.74 100.48 375.79 109.12" style="fill: rgb(154, 74, 77); transform-origin: 379.265px 105.965px;" id="ella6tw51mci" class="animable"></polygon><path d="M405.08,114.59a1.4,1.4,0,0,1-2.8-.21,1.4,1.4,0,1,1,2.8.21Z" style="fill: rgb(235, 235, 235); transform-origin: 403.68px 114.485px;" id="el0glkagx5r19t" class="animable"></path></g><path d="M382.89,128.1c-.66.24-5.08,1.64-7.51,2.66a58.33,58.33,0,0,0-14.26,16.91c-2.54,4.83-3.86,9-4,16.88-.11,6.85-.94,27.2-2.3,38.52.74,2.65,8.14,5.8,8.14,5.8.38-10.18.56-42.08,2.76-52.9,2.61-12.84,14.11-24.57,16.79-26.41Z" style="fill: rgb(0, 54, 121); transform-origin: 368.855px 168.485px;" id="el3c094c8v9em" class="animable"></path><path d="M400.23,127.31l0,2.1c-6.36,16.54-5.11,24.12-4.3,35,1.93,26,5,48.46,5,48.46s18.16.19,24.63-8.56c0,0-5.82-13.14-8-26.41-1.29-7.87,2.38-24,1-35.39-.56-4.76-2.36-9.51-5.93-10.63-2.95-.93-5.51-1.68-5.51-1.68Z" style="fill: rgb(0, 54, 121); transform-origin: 410.409px 170.09px;" id="elz7jme5b73o" class="animable"></path><g id="freepik--arm--inject-33" class="animable" style="transform-origin: 426.863px 176.162px;"><path d="M422.81,218.33c2.88.82,6.55-2.76,7.56-4s-.29-4.2-.9-6.69,0-6.7-3.08-5.52S416.82,211.62,422.81,218.33Z" style="fill: rgb(154, 74, 77); transform-origin: 425.551px 210.183px;" id="el62usgnah3b5" class="animable"></path><path d="M413.21,132.51c9.32,1.94,10.23,1.66,14.63,10.51,5.13,10.3,12.39,27.12,14.22,31s3.6,6.79-1.33,12.84c-4.39,5.39-17.36,20.91-19.29,23.13-1.7,2,.21,7.76,6.06,6.92,0,0-4.45,3.94-6.9,3.5-2.11-.37-7.44-3.62-10.49-10-1.92-4-.31-7.21,2.61-11.71,3.49-5.37,12.13-19.74,12.13-19.74L412,153.29S406.4,139.61,413.21,132.51Z" style="fill: rgb(177, 102, 104); transform-origin: 426.604px 176.477px;" id="el4unmhmyyu0t" class="animable"></path><path d="M412.65,131.88c-2.26,2.25-5.85,10.69-.85,22.89L424.39,179l-5.61,9s4,5.21,7.37,7.59a8.22,8.22,0,0,0,6.49,1.51s7.21-8,9.76-11.51,3-4.52-.25-12.4c-3.14-7.6-13.12-30.74-15.26-34.28S422,133,412.65,131.88Z" style="fill: rgb(0, 54, 121); transform-origin: 426.863px 164.563px;" id="elxtx99on8ta" class="animable"></path><g id="el24rtzt6u8xm"><path d="M412.65,131.88c-2.26,2.25-5.85,10.69-.85,22.89L424.39,179l-5.61,9s4,5.21,7.37,7.59a8.22,8.22,0,0,0,6.49,1.51s7.21-8,9.76-11.51,3-4.52-.25-12.4c-3.14-7.6-13.12-30.74-15.26-34.28S422,133,412.65,131.88Z" style="fill: rgb(255, 255, 255); opacity: 0.55; transform-origin: 426.863px 164.563px;" class="animable"></path></g><g id="el5l0de34kn38"><path d="M427,188.83a23,23,0,0,1-2.65-2.38,21.69,21.69,0,0,1-2.21-2.68c-.11-.16-.24-.39-.34-.56l-.43.68a4,4,0,0,1,.22.34,24.48,24.48,0,0,0,2.2,2.68,21.82,21.82,0,0,0,2.63,2.36,13.58,13.58,0,0,0,3.23,2c.32.12.34-.32.14-.47C428.83,190.1,427.86,189.52,427,188.83Z" style="fill: rgb(0, 54, 121); opacity: 0.35; transform-origin: 425.645px 187.25px;" class="animable"></path></g></g></g></g></g><g id="freepik--character-1--inject-33" class="animable" style="transform-origin: 111.642px 229.115px;"><g id="freepik--character--inject-33" class="animable" style="transform-origin: 111.642px 229.115px;"><g id="freepik--character--inject-33" class="animable" style="transform-origin: 111.642px 229.115px;"><g id="freepik--bottom--inject-33" class="animable" style="transform-origin: 102.312px 297.593px;"><path d="M161.25,384.15c.78-.07.8,1.83.31,2.74-1.38,2.62-5.24,5.44-10.89,6.69s-16.7-.24-20-.37-9.13,1.58-12.47,2.11c-6.08,1-10.24-.7-12.23-2.65a3.76,3.76,0,0,1-.83-2.87c.06-2.31.26-2.78.52-2.76Z" style="fill: rgb(55, 71, 79); transform-origin: 133.5px 389.882px;" id="elgce9y52a9eu" class="animable"></path><path d="M106.27,380.3a28.8,28.8,0,0,0-.54,8.33c.71,1.72,2.59,2.7,4.09,3.17,4,1.25,7.88,1,12.25.08a32.09,32.09,0,0,1,8.62-1c3.46.19,11.09,1,14.56,1a23.55,23.55,0,0,0,9.44-1.82c2.29-1.07,5.76-3.42,6.54-5.2.75-4.15.32-6.63-2.07-8S153,375.07,148,374.69c-1.49-.11-3.38-.2-4.18-.29-3-.33-5.85-.55-8.14-.7a13.07,13.07,0,0,1-5.65-1.23,3.77,3.77,0,0,1-1.86-1.81c-.48-1.06-.47-2.61-1.4-2.7,0,0-17.1,2.91-18.48,3.05C106.71,371.17,107.75,373.46,106.27,380.3Z" style="fill: rgb(69, 90, 100); transform-origin: 133.601px 380.307px;" id="eln2vlb6pgpzb" class="animable"></path><path d="M145.17,374.25a4.82,4.82,0,0,1,1.26,1.49,8.32,8.32,0,0,1,.78,2c.23.87-.85,1-1.27,0a11.42,11.42,0,0,0-1.22-2.37,2.68,2.68,0,0,0-1.49-1.06l-.86-.09C142.6,373.6,144.5,373.81,145.17,374.25Z" style="fill: rgb(250, 250, 250); transform-origin: 144.806px 376.137px;" id="elp7978la5z1i" class="animable"></path><path d="M137.45,373.35a2,2,0,0,1,1.61.49,4,4,0,0,1,1.21,1.8,16.65,16.65,0,0,1,.69,2.58c.06.56-1.26.54-1.4-.07s-.44-1.72-.68-2.35c-.15-.39-.83-1.86-1.74-2l-.41,0c0-.2.25-.33.43-.37A1.47,1.47,0,0,1,137.45,373.35Z" style="fill: rgb(250, 250, 250); transform-origin: 138.846px 375.978px;" id="el3oj8qmkreww" class="animable"></path><path d="M132.92,373.21a1.75,1.75,0,0,1,1,.58,4.78,4.78,0,0,1,.71,1.36,9.2,9.2,0,0,1,.4,2.76c0,.72-1.3.53-1.34,0-.14-1.52-.14-2.52-.87-3.63a3.38,3.38,0,0,0-1.13-1.19c0-.13.23-.15.36-.12A8.41,8.41,0,0,1,132.92,373.21Z" style="fill: rgb(250, 250, 250); transform-origin: 133.36px 375.67px;" id="el44gfxzsr584" class="animable"></path><path d="M106.37,352.59s1.48,15.73,1.85,19.36c.12,1.16,2.32,1.63,3.45,2.12a13.64,13.64,0,0,1,3.89,2.24c2.87,2.85,5,3.52,6.77-1.48a1.75,1.75,0,0,1,2.32-1.23,8,8,0,0,0,3,.42c.15-.1.06-.33,0-.48a4.93,4.93,0,0,1-1-4c.49-6.44.76-12.89,1.13-19.34Z" style="fill: rgb(255, 189, 167); transform-origin: 117.075px 364.361px;" id="elqamnnvd0y7" class="animable"></path><path d="M51.29,341.05c2-3.25,2.67-9.29,4.13-20.51l18.49,9.53L66,349.49a15.29,15.29,0,0,0-.75,2.6C63,355.28,51.29,341.05,51.29,341.05Z" style="fill: rgb(255, 189, 167); transform-origin: 62.6px 336.548px;" id="elmky1wto2z3d" class="animable"></path><path d="M45.15,348c0-.19-.08-1.73,0-1.91.43-1.65,1.45-2.11,2.76-3A20.21,20.21,0,0,0,51.5,340c.44-.61.52-.92,1.2-1.2,1.16-.47,3-.51,5.32.7,3.77,2,4.92,4.36,4.7,6.94-.16,2-.33,4.58,1.41,5.75.72.49,1.86-2.66,1.86-2.66,1.07,1.8-.43,4.28-1.22,7.91a15,15,0,0,0-.1,6.11c.38,3.19.82,3.17,2.51,3.4,1.46.19,5.6-.09,8.11,1.67,3.47,2.42,2.54,5.64,2.54,5.64-.45,1.23-4.22,7.17-18,4.95-4-.64-12.4-6.92-12.27-7.51a7.84,7.84,0,0,0,0-1.81c0-1.4-.11-2.81-.17-4.22a21.61,21.61,0,0,0-.24-4,22.93,22.93,0,0,1-.51-3.32c-.26-2.83-.53-5.66-.79-8.49C45.75,349,45,348.79,45.15,348Z" style="fill: rgb(69, 90, 100); transform-origin: 61.5289px 359.098px;" id="elp0qjyu8bf6n" class="animable"></path><path d="M43.41,347.43c-1.36,1.31-.53,5.13,1.29,9.71.81,2,2.31,5.52,1.87,9.24s-.52,5.47.44,7.22c1.5,2.72,9.51,6.21,14.23,7.3a26,26,0,0,1-4.8-13.63c-.48-8.21-1.1-13.5-4.85-17.13C46.84,345.53,43.41,347.43,43.41,347.43Z" id="el5755ztb05qh" class="animable" style="transform-origin: 51.9875px 363.971px;"></path><path d="M77.83,374.22s-2.76,5.18-13.42,5c-4.2-.07-6.44-2.11-6.55-8.49-.12-7.69-.74-15.45-3.22-19.26s-6.45-5.67-9.52-5.4a3,3,0,0,0-1.71,1.35s3.07-1,7.86,3c3.53,2.93,4.48,9.05,4.43,16.65,0,3.27-.22,7,.74,9.46A7.54,7.54,0,0,0,61.53,381c5.79,1.62,13.72-1.06,15.73-3.51A3.79,3.79,0,0,0,77.83,374.22Z" style="fill: rgb(55, 71, 79); transform-origin: 60.6942px 363.769px;" id="elbi635mu8926" class="animable"></path><path d="M65,365.51a2.17,2.17,0,0,1,.86,1.27,3.67,3.67,0,0,1-1.68,3.34c-.64.4-1.2.26-.18-1.09A6.65,6.65,0,0,0,65,365.51Z" style="fill: rgb(250, 250, 250); transform-origin: 64.6535px 367.913px;" id="els256hubt1qs" class="animable"></path><path d="M64.45,361.53s.34.22.43,1.29c0,.57-.85,2.88-2,3.43s-.51-.75,0-1.38A8.2,8.2,0,0,0,64.45,361.53Z" style="fill: rgb(250, 250, 250); transform-origin: 63.5579px 363.956px;" id="el37r9wn3bz9m" class="animable"></path><path d="M64.83,357.14s.37.1,0,1.57a4.71,4.71,0,0,1-2.33,2c-.72.08-1.07-.28-.18-.92C63,359.32,64.7,357.85,64.83,357.14Z" style="fill: rgb(250, 250, 250); transform-origin: 63.3924px 358.931px;" id="elhti8ltcpypu" class="animable"></path><path d="M71.73,337.5s3.39-7.95,15.46-34.94c3.65-8.17,4.6-14.23,5.52-18.24,1-4.17,5.08-24.72,5.08-24.72l5.26,34.18a77.1,77.1,0,0,0-1.87,13.5c0,5.64.71,14.21,2.31,25.84,2.44,17.77,3.1,27,3.1,27,1.25.9,5.22,2.65,12,2.27a27.54,27.54,0,0,0,8.94-2.49s1.54-18.49,2.18-31.38c.59-11.9,1.57-25.35,2.07-32.53,1-13.48,1.26-19.29,1.4-40.54.14-22-1.54-54.44-1.54-54.44l-62.51-1.44s-4.11,9.18-2.85,28.16c-.49,18.53-3.24,53.8-3.24,53.8a94.39,94.39,0,0,0-6.61,26.11c-.92,8.76-2.31,20.3-2.31,20.3C60.78,327.7,68.06,332,71.73,337.5Z" style="fill: rgb(0, 54, 121); transform-origin: 93.6541px 281.007px;" id="elrbjwknynxv" class="animable"></path><g id="eltqvxmsidv8"><path d="M97.84,259.78l-3.45-24.49s-8.11-.63-17.85-8.74c0,0,1.28,7.26,15.1,12.22l3.61,25.49L92.63,285S97.78,260.25,97.84,259.78Z" style="opacity: 0.2; transform-origin: 87.19px 255.775px;" class="animable"></path></g></g><g id="freepik--top--inject-33" class="animable" style="transform-origin: 122.911px 142.1px;"><path d="M146.6,176.91l2.17.37,1.29,1.81a3.07,3.07,0,0,0,0,2.6c.67,1.33,1.64.91,1.64.91l1-2.41.4-3.35-2.73-2.41-2.68-.53Z" style="fill: rgb(177, 102, 104); transform-origin: 149.85px 178.281px;" id="el53glt9b1rrr" class="animable"></path><path d="M154.48,175.81a5.69,5.69,0,0,1,.1,2.91,16.9,16.9,0,0,1-.92,2.54c-.28.59-1.38.59-2.06-.89-.56-1.22.23-3.94.23-3.94Z" style="fill: rgb(240, 153, 122); transform-origin: 153.061px 178.719px;" id="elma3ebri2v" class="animable"></path><path d="M158.57,172.45c.3,1.54,1.22,4.43,1.39,5.55s-1.22,1-1.22,1l-3.28-4.72Z" style="fill: rgb(240, 153, 122); transform-origin: 157.717px 175.727px;" id="eldpkmn2ojow4" class="animable"></path><path d="M146.27,161c1.47-.6,1.44-.62,3.46.45a60.14,60.14,0,0,1,7.83,5.22c1.36,1.22,1,3.59,1,5.63s.37,4.24,0,4.81a.71.71,0,0,1-1,.22Z" style="fill: rgb(255, 189, 167); transform-origin: 152.497px 169.019px;" id="el81qm2p4pjzo" class="animable"></path><g id="freepik--Pencil--inject-33" class="animable" style="transform-origin: 148.367px 168.522px;"><path d="M159.08,179.45l1.76,6.14a.2.2,0,0,1-.31.21L155.38,182Z" style="fill: rgb(255, 168, 167); transform-origin: 158.113px 182.643px;" id="el60d2r5bl436" class="animable"></path><path d="M160.56,185.81h0L155.38,182l2-1.34.45.65,2.87,4.31Z" style="fill: rgb(242, 143, 143); transform-origin: 158.04px 183.235px;" id="el0815crjfwq4n" class="animable"></path><path d="M160.53,185.8a.2.2,0,0,0,.31-.21l-.35-1.2h0a1.07,1.07,0,0,1-1,.59h-.11Z" style="fill: rgb(38, 50, 56); transform-origin: 160.113px 185.113px;" id="elqkukkjzawp8" class="animable"></path><path d="M137.58,156.34l.34.48.4.59L155.38,182a2.9,2.9,0,0,0,2.05-.35,3,3,0,0,0,1.65-2.17L142,154.9l-.78-1.12C141.71,154.54,138.05,157.09,137.58,156.34Z" style="fill: rgb(69, 90, 100); transform-origin: 148.33px 167.918px;" id="elcq3vlxveduq" class="animable"></path><path d="M137.58,156.34l.34.48.4.59L155.38,182a3,3,0,0,0,2.45-.61L140.07,155.5c.07-.05.07-.09,0-.11C139.11,156.14,137.84,156.76,137.58,156.34Z" style="fill: rgb(55, 71, 79); transform-origin: 147.705px 168.722px;" id="elp38ccgdjt9r" class="animable"></path><path d="M138.85,158.19l.76,1.08c.21.32,1,.06,1.84-.41,1.09-.61,2.1-1.73,1.82-2.16l-.55-.8-.2-.28c.27.43-.74,1.55-1.83,2.16-.79.45-1.57.71-1.81.44h0Z" style="fill: rgb(235, 235, 235); transform-origin: 141.084px 157.516px;" id="elgzmljokonzd" class="animable"></path><path d="M139,158.46c.49.75,4.15-1.83,3.67-2.57L142,154.8c.48.75-3.18,3.32-3.67,2.57Z" style="fill: rgb(55, 71, 79); transform-origin: 140.522px 156.698px;" id="elsgyk7p3z98s" class="animable"></path><path d="M137.58,156.34l.74,1.07c.47.74,4-1.71,3.71-2.51l0,0-.76-1.08C141.71,154.54,138.05,157.09,137.58,156.34Z" style="fill: rgb(235, 235, 235); transform-origin: 139.813px 155.684px;" id="elpwymcfae8r" class="animable"></path><path d="M160.75,185.81a.19.19,0,0,1-.18,0A.19.19,0,0,0,160.75,185.81Z" style="fill: rgb(255, 168, 167); transform-origin: 160.66px 185.821px;" id="elq4swk2o9vma" class="animable"></path><path d="M136,154.12l1.57,2.22c.2.32,1,.06,1.82-.4,1.09-.61,2.12-1.73,1.85-2.16h0l-1.58-2.23c-.63-.91-2.62.15-3.46,1.29A1.15,1.15,0,0,0,136,154.12Z" style="fill: rgb(242, 143, 143); transform-origin: 138.586px 153.844px;" id="elfe2idueo83d" class="animable"></path><g id="elgmix7isj56h"><path d="M137.52,154.28a3.44,3.44,0,0,0,2.19-2.15.78.78,0,0,0-.15-.71c-.73-.66-2.56.34-3.35,1.42a1.16,1.16,0,0,0-.21,1.26C136.24,154.44,136.81,154.53,137.52,154.28Z" style="opacity: 0.1; transform-origin: 137.82px 152.816px;" class="animable"></path></g></g><path d="M146.66,169.43c1.53,1.57,3.24,2,6.19,2.81a18,18,0,0,1,3.93,2.15c1.17.79,1.72,2.25-.52,3.29-1.5.7-3.4-.17-5-.48a11.54,11.54,0,0,0-2.43-.2c-2.32.14-2.72.88-5.34,1.47s-4.71-.06-6.17.19-35.54,10.46-35.54,10.46l-.36-19s28.49-2.14,33.08-2.93c3.72-.65,8.12-3.69,8.12-3.69Z" style="fill: rgb(255, 189, 167); transform-origin: 129.609px 176.31px;" id="elobpm71ztm0l" class="animable"></path><path d="M137.37,166.33a14.16,14.16,0,0,1-2.92.89c-4.59.79-33.08,2.93-33.08,2.93l.36,19s34.08-10.2,35.54-10.46a4.93,4.93,0,0,1,1,0Z" style="fill: rgb(240, 153, 122); transform-origin: 119.82px 177.74px;" id="elm84yu69zcmr" class="animable"></path><path d="M154.31,167.21a1.68,1.68,0,0,1-2.09.53c-.6-.32-2.59-1.89-2.59-1.89l5,7.17a3.35,3.35,0,0,1,.07-1.91,2,2,0,0,1,1.29-.85,2.32,2.32,0,0,0-1.61.34,2.57,2.57,0,0,1-1.33-1.95C154.33,167.76,154.31,167.21,154.31,167.21Z" style="fill: rgb(240, 153, 122); transform-origin: 152.81px 169.435px;" id="elmw87ws5yok" class="animable"></path><path d="M68.69,121.55c-4.14,7.91-3.83,16.87-2.63,28,1.1,10.22,1.87,16.56,2.81,29.21C70,193.17,68,202.29,68,202.29s8.39,11.65,26.41,16.24c31.66,8.06,38.34-2.37,38.34-2.37s-.28-11-.24-19.55c0-7.71-.14-16.84-.4-24.43-.61-17.43-.81-31.91-2.83-38.12-1.49-3.44-3.05-4.8-6.86-6.53-3.14-1.43-9.13-4.33-13.6-6.06a256.28,256.28,0,0,0-25.06-7.64A15.13,15.13,0,0,0,68.69,121.55Z" style="fill: rgb(55, 71, 79); transform-origin: 99.0114px 167.653px;" id="el1zw8xjqxi92" class="animable"></path><path d="M111.12,113.83l-2.28,7.64c-5.38.17-17.59-2-20.13-4.45L91.06,108Z" style="fill: rgb(255, 189, 167); transform-origin: 99.915px 114.74px;" id="eltgu8yhywsf" class="animable"></path><path d="M129.06,92.09s2.07,2.25,2.73,8.87l-4,2C127.4,98.29,127,93.56,129.06,92.09Z" style="fill: rgb(240, 153, 122); transform-origin: 129.633px 97.525px;" id="elqnlk5dy4vc8" class="animable"></path><path d="M123.13,72.82c6.56,1.67,9,8.27,5.26,21.92.46,14.87-4.86,19.74-7,21.27-4.58,1.46-8.88,1-14.35-1.51-4.17-2-14.67-7.29-18-15-4-9.11-3.13-21.7,3.54-25.21C101.88,69.3,119.66,71.94,123.13,72.82Z" style="fill: rgb(255, 189, 167); transform-origin: 108.393px 94.0843px;" id="el10rj82b02oin" class="animable"></path><path d="M122.63,106.3a.59.59,0,0,1,.2.15s0,.11.08.16a3.79,3.79,0,0,0,.2.34,3.43,3.43,0,0,0,.56.64,5.3,5.3,0,0,0,1.32.82.1.1,0,0,1,.06.09.14.14,0,0,1,0,.14c-.1.08-.28,0-.4,0a2.17,2.17,0,0,1-.4-.15,3.94,3.94,0,0,1-.78-.49,3.42,3.42,0,0,1-.62-.64,2.92,2.92,0,0,1-.24-.37l-.1-.18a.52.52,0,0,1,0-.35S122.55,106.26,122.63,106.3Z" style="fill: rgb(240, 153, 122); transform-origin: 123.774px 107.485px;" id="elsgbdk5h3eqq" class="animable"></path><path d="M121.34,116c-1.21.85-7.47,1.63-11,.56l.82-2.74A38.18,38.18,0,0,0,121.34,116Z" style="fill: rgb(240, 153, 122); transform-origin: 115.84px 115.45px;" id="elrvi1usfj9i" class="animable"></path><path d="M121.73,82.67a5.38,5.38,0,0,1-1.44,3,6.69,6.69,0,0,1-4.16,2,12.84,12.84,0,0,1,.41,6,3.17,3.17,0,0,1-.73,1.73,1.22,1.22,0,0,1-2.15-.42,15.3,15.3,0,0,0-1.25-3.32A5.9,5.9,0,0,0,109.14,89c-5.23-1.5-6.78,6.79-5.16,10,2.65,5.24,6.06,2.82,6.06,2.82s.49,7.42-5.21,9.55c0,0-8.88,1.32-14-2.58-4-6.22-7.72-13.21-8.49-18.82-1.68-12.21,2-19.14,7.39-20.14,1.49-4.31,6.13-6.31,10.4-7,5.8-1,10.77,1.74,16.35,2.72a19.19,19.19,0,0,0,8.59-.44c1.24-.35,2.75-.77,3.66.11a2.49,2.49,0,0,1,.65,1.33,5.74,5.74,0,0,1-1.35,5c1.65-.77,4.15.16,5.42,1.58,1.81,2,1.78,4.07.53,6.68C133.2,81.36,128.75,86.14,121.73,82.67Z" style="fill: rgb(38, 50, 56); transform-origin: 108.4px 87.0995px;" id="ellee781dgij" class="animable"></path><path d="M89.82,71l-4.55-3.82a3,3,0,0,1,4.22-.32A2.9,2.9,0,0,1,89.82,71Z" style="fill: rgb(38, 50, 56); transform-origin: 87.9035px 68.5702px;" id="el068fzjx3f0pl" class="animable"></path><path d="M180.42,208.22c-1.18-1.18-2.36-2.23-3.34-3.16-.81-.77-1.86-1.83-3.66-3.81-.76-.85-1.6-.43-3.18-.95s-1.11-1.77-2.1-2.24c-1.16-.56-1.56-.21-2.68-.73-1.38-.63-2.09-2.11-3.78-1.48-3.05,1.13-4,2.54-8.23-1.35-10.42-9.63-16.84-15.78-16.84-15.78s-2-26.37-2.82-32.45c-1.15-8.25-.89-14-11.68-17.52,0,0-8.65,4-8,19.65.59,13.53,2.17,26.86,3,33.38.67,5.5,1.65,6.19,8.54,10.95,16.92,11.7,19.53,13.57,21.66,14.94,2.86,1.84,5.81,4,9,4.21,2.93.15,7.13-1.77,9.18-2.89,3.29-1.79,6-2.72,7.05-2.46s3,2.34,5,2.88S181,208.79,180.42,208.22Z" style="fill: rgb(255, 189, 167); transform-origin: 147.312px 170.319px;" id="elc9h9on1mo2o" class="animable"></path><path d="M122.44,127.53c5,2.27,7,3.46,9.62,7.73,1.73,2.82,2,5.88,2.75,13.36.63,6.54,1.5,19,1.5,19s-1.12,3-8.39,5.37a19.28,19.28,0,0,1-12.93-.15s-1.43-13.05-1.92-18.45C112.4,147.07,111.85,133,122.44,127.53Z" style="fill: rgb(0, 54, 121); transform-origin: 124.535px 150.781px;" id="eleec2i45n41l" class="animable"></path></g></g></g></g><g id="freepik--speech-bubble--inject-33" class="animable" style="transform-origin: 325.75px 93.4542px;"><g id="freepik--speech-bubble--inject-33" class="animable" style="transform-origin: 325.75px 93.4542px;"><g id="freepik--speech-bubble--inject-33" class="animable" style="transform-origin: 325.75px 93.4542px;"><path d="M309.71,64.17l29.22,16.9c.57.34,1,1.15,1,2.71v35.71c0-.24-.47.57-1.05.89l-4.15,2.36a2.33,2.33,0,0,1-2.09,0l-29.22-16.9a2.31,2.31,0,0,1-1-1.81V68.32a2.28,2.28,0,0,1,1.05-1.8l4.15-2.36A2.36,2.36,0,0,1,309.71,64.17Z" style="fill: rgb(0, 54, 121); transform-origin: 321.175px 93.4542px;" id="el4l4u71fmrg4" class="animable"></path><g id="elyij9zmmfo8m"><path d="M332.68,122.73a2.36,2.36,0,0,0,2.09,0l4.15-2.36c.58-.32,1.05-1.13,1.05-.89V83.78a3.43,3.43,0,0,0-.33-2l-6.23,3.58c.2.32.31.69.31.13v35.7C333.72,122.74,333.29,123.09,332.68,122.73Z" style="opacity: 0.2; transform-origin: 336.341px 102.377px;" class="animable"></path></g><g id="elsct1d3vsr07"><path d="M302.43,68.13c.09-.53.52-.71,1-.42l29.21,16.91a2,2,0,0,1,.73.78l6.23-3.58a2.08,2.08,0,0,0-.72-.75l-29.21-16.9a2.33,2.33,0,0,0-2.09,0l-4.15,2.36A2.36,2.36,0,0,0,302.43,68.13Z" style="fill: rgb(255, 255, 255); opacity: 0.3; transform-origin: 321.015px 74.6612px;" class="animable"></path></g><path d="M342.83,109.36c.65-.39,5.65-3.2,5.81-3.3a1,1,0,0,0,.2-1.48L340,94.4,333.72,98,343,107.9A1,1,0,0,1,342.83,109.36Z" style="fill: rgb(0, 54, 121); transform-origin: 341.4px 101.88px;" id="elgjj75y9zz1" class="animable"></path><g id="elkutabeps2tp"><path d="M342.83,109.36c.65-.39,5.65-3.2,5.81-3.3a1,1,0,0,0,.2-1.48L340,94.4,333.72,98,343,107.9A1,1,0,0,1,342.83,109.36Z" style="fill: rgb(255, 255, 255); opacity: 0.3; transform-origin: 341.4px 101.88px;" class="animable"></path></g><path d="M303.46,67.72l29.22,16.9a2.28,2.28,0,0,1,1,1.8V98L343,107.9a.94.94,0,0,1-.6,1.6l-8.69-.64h0v13.27c0,.66-.46.93-1,.6l-29.22-16.9a2.31,2.31,0,0,1-1-1.81V68.32C302.42,67.65,302.89,67.38,303.46,67.72Z" style="fill: rgb(0, 54, 121); transform-origin: 322.878px 95.2219px;" id="eldv1f5v4iq1" class="animable"></path></g><g id="freepik--Check--inject-33" class="animable" style="transform-origin: 319.214px 95.7856px;"><path d="M314.71,105.35l-.3,0a2.26,2.26,0,0,1-1.73-1.27l-3.6-7.58a2.24,2.24,0,0,1,4.06-1.91L315.27,99l10.29-12A2.24,2.24,0,0,1,329,90l-12.55,14.61A2.24,2.24,0,0,1,314.71,105.35Z" style="fill: rgb(250, 250, 250); transform-origin: 319.214px 95.7856px;" id="el38aprqu600v" class="animable"></path></g></g></g><defs>     <filter id="active" height="200%">         <feMorphology in="SourceAlpha" result="DILATED" operator="dilate" radius="2"></feMorphology>                <feFlood flood-color="#32DFEC" flood-opacity="1" result="PINK"></feFlood>        <feComposite in="PINK" in2="DILATED" operator="in" result="OUTLINE"></feComposite>        <feMerge>            <feMergeNode in="OUTLINE"></feMergeNode>            <feMergeNode in="SourceGraphic"></feMergeNode>        </feMerge>    </filter>    <filter id="hover" height="200%">        <feMorphology in="SourceAlpha" result="DILATED" operator="dilate" radius="2"></feMorphology>                <feFlood flood-color="#ff0000" flood-opacity="0.5" result="PINK"></feFlood>        <feComposite in="PINK" in2="DILATED" operator="in" result="OUTLINE"></feComposite>        <feMerge>            <feMergeNode in="OUTLINE"></feMergeNode>            <feMergeNode in="SourceGraphic"></feMergeNode>        </feMerge>            <feColorMatrix type="matrix" values="0   0   0   0   0                0   1   0   0   0                0   0   0   0   0                0   0   0   1   0 "></feColorMatrix>    </filter></defs></svg>