<svg width="687" height="517" viewBox="0 0 687 517" fill="none" xmlns="http://www.w3.org/2000/svg">
<g clip-path="url(#clip0_5_21)">
<path opacity="0.4" d="M579.823 198.766C588.914 198.766 596.284 191.387 596.284 182.284C596.284 173.181 588.914 165.802 579.823 165.802C570.731 165.802 563.361 173.181 563.361 182.284C563.361 191.387 570.731 198.766 579.823 198.766Z" fill="#0D6EFD"/>
<path opacity="0.4" d="M232.748 108.087C245.708 108.087 256.214 97.568 256.214 84.5916C256.214 71.6152 245.708 61.0957 232.748 61.0957C219.788 61.0957 209.282 71.6152 209.282 84.5916C209.282 97.568 219.788 108.087 232.748 108.087Z" fill="#0D6EFD"/>
<path opacity="0.4" d="M189.318 112.296C198.41 112.296 205.78 104.916 205.78 95.8135C205.78 86.7107 198.41 79.3314 189.318 79.3314C180.227 79.3314 172.857 86.7107 172.857 95.8135C172.857 104.916 180.227 112.296 189.318 112.296Z" fill="#0D6EFD"/>
<path d="M593.61 366.597C580.603 380.855 580.13 401.625 580.13 401.625C580.13 401.625 600.746 399.278 613.753 385.02C626.76 370.762 627.232 349.992 627.232 349.992C627.232 349.992 606.616 352.339 593.61 366.597Z" fill="#3F3D56"/>
<path d="M600.957 370.7C597.021 389.604 580.477 402.142 580.477 402.142C580.477 402.142 570.313 384.03 574.249 365.126C578.185 346.221 594.73 333.684 594.73 333.684C594.73 333.684 604.893 351.796 600.957 370.7Z" fill="#20C997"/>
<path d="M584.064 175.634V400.99L509.04 463.045H125.221V226.802L237.213 175.634H584.064Z" fill="#3F3D56"/>
<path opacity="0.1" d="M584.064 175.634V176.537L557.131 194.587L509.04 226.802H125.221L237.213 175.634H584.064Z" fill="black"/>
<path opacity="0.1" d="M584.064 175.634V400.99L509.04 463.045L509.583 226.257L557.131 194.587L583.629 175.634H584.064Z" fill="black"/>
<path d="M482.944 206.661H249.174L266.571 196.863H490.556L482.944 206.661Z" fill="#2F2E41"/>
<path d="M684.705 475.302C684.705 475.302 689.237 494.278 685.117 495.103C680.997 495.928 660.809 495.662 655.865 496.487C650.921 497.312 640.622 495.928 640.622 492.215C640.622 488.503 651.333 486.028 651.333 486.028C651.333 486.028 666.577 477.777 666.989 477.365C667.401 476.952 684.705 475.302 684.705 475.302Z" fill="#2F2E41"/>
<path d="M680.997 363.511C680.997 363.511 679.761 377.536 679.761 378.774C679.761 380.011 680.997 399.4 679.761 400.225C678.525 401.05 680.585 406.825 680.585 408.887C680.585 410.95 687.177 445.189 685.529 458.389C683.881 471.59 688.001 470.352 686.765 471.59C685.529 472.827 685.529 472.827 685.529 475.302C685.529 477.777 672.345 479.84 672.345 479.84L657.925 388.674L665.341 361.448L680.997 363.511Z" fill="#575A89"/>
<path opacity="0.1" d="M680.997 363.511C680.997 363.511 679.761 377.536 679.761 378.774C679.761 380.011 680.997 399.4 679.761 400.225C678.525 401.05 680.585 406.825 680.585 408.887C680.585 410.95 687.177 445.189 685.529 458.389C683.881 471.59 688.001 470.352 686.765 471.59C685.529 472.827 685.529 472.827 685.529 475.302C685.529 477.777 672.345 479.84 672.345 479.84L657.925 388.674L665.341 361.448L680.997 363.511Z" fill="black"/>
<path d="M678.937 481.077C678.937 481.077 683.057 495.928 678.937 496.753C674.817 497.578 654.629 495.808 649.685 496.633C644.742 497.458 634.442 497.578 634.442 493.865C634.442 490.153 645.154 487.678 645.154 487.678C645.154 487.678 660.397 479.427 660.809 479.015C661.221 478.602 678.937 481.077 678.937 481.077Z" fill="#2F2E41"/>
<path d="M684.705 347.01C684.705 347.01 689.649 358.973 683.881 365.161C678.113 371.349 671.521 383.724 671.521 384.549C671.521 385.374 683.057 467.464 681.409 472.827C679.761 478.19 680.173 481.49 680.585 482.315C680.997 483.14 676.465 487.678 671.521 487.678C666.577 487.678 659.161 483.965 658.337 480.665C657.513 477.365 659.573 448.901 659.161 443.539C658.749 438.176 656.689 430.338 655.865 428.688C655.041 427.038 650.509 425.388 649.685 420.438C648.861 415.488 642.27 352.373 644.33 350.31C646.39 348.248 684.705 347.01 684.705 347.01Z" fill="#575A89"/>
<path d="M653.393 252.132C661.13 252.132 667.401 245.853 667.401 238.107C667.401 230.36 661.13 224.081 653.393 224.081C645.657 224.081 639.386 230.36 639.386 238.107C639.386 245.853 645.657 252.132 653.393 252.132Z" fill="#FFB9B9"/>
<path d="M662.045 245.119C662.045 245.119 659.161 260.382 661.221 262.032C663.281 263.682 645.565 266.157 645.565 266.157C645.565 266.157 643.505 245.944 643.093 243.882C642.681 241.819 662.045 245.119 662.045 245.119Z" fill="#FFB9B9"/>
<path d="M643.094 264.92C643.094 264.92 648.037 250.482 668.225 254.607C668.225 254.607 671.933 255.845 670.697 257.082C669.461 258.32 668.225 258.32 669.873 259.557C671.521 260.795 673.581 259.557 672.345 260.795C671.109 262.032 683.469 269.458 682.645 283.483C681.821 297.508 685.529 317.309 682.645 320.609C679.761 323.909 684.705 338.347 683.881 341.235C683.057 344.123 688.825 347.835 686.353 349.073C683.881 350.31 639.386 357.736 638.15 349.073C636.914 340.41 637.738 346.598 636.502 344.535C635.266 342.473 634.854 338.76 635.678 334.222C636.502 329.685 638.562 318.547 637.738 314.422C636.914 310.296 637.738 275.645 640.21 271.52C642.682 267.395 643.094 264.92 643.094 264.92Z" fill="#6EA8FE"/>
<path d="M651.745 365.573C651.745 365.573 657.925 389.087 650.097 389.087C642.27 389.087 642.682 364.748 642.682 364.748L651.745 365.573Z" fill="#FFB9B9"/>
<path d="M647.213 238.106C647.213 239.303 648.944 240.062 651.626 240.235H651.63C652.767 240.3 653.908 240.278 655.041 240.169C656.755 240.012 657.464 241.625 657.756 243.754C658.234 247.264 657.567 252.186 658.337 252.957C659.4 254.021 667.15 252.953 669.572 250.54C669.949 250.201 670.201 249.744 670.285 249.244C670.539 247.771 671.265 246.42 672.353 245.396C673.783 243.832 675.818 242.1 678.113 239.344C682.233 234.394 678.113 233.981 676.877 230.269C675.641 226.556 673.581 225.319 673.581 222.843C673.581 220.368 664.105 218.306 656.277 218.718C648.449 219.131 650.097 229.031 650.097 229.031C650.097 229.031 649.632 230.227 649.076 231.77C648.323 233.706 647.712 235.694 647.246 237.719C647.227 237.847 647.216 237.977 647.213 238.106Z" fill="#2F2E41"/>
<path opacity="0.1" d="M648.861 271.108C648.861 271.108 662.869 270.283 664.105 290.908C665.341 311.534 664.929 330.922 664.929 331.335C664.929 331.747 659.161 370.936 653.805 370.936C648.449 370.936 644.329 370.111 643.094 368.049C641.858 365.986 646.389 336.285 646.389 336.285C646.389 336.285 648.449 304.934 645.153 295.033C641.858 285.133 641.446 272.345 648.861 271.108Z" fill="black"/>
<path d="M646.801 269.045C646.801 269.045 660.809 268.22 662.045 288.846C663.281 309.471 662.869 328.86 662.869 329.272C662.869 329.685 657.101 368.874 651.745 368.874C646.389 368.874 642.269 368.048 641.034 365.986C639.798 363.923 644.329 334.222 644.329 334.222C644.329 334.222 646.389 302.871 643.094 292.971C639.798 283.071 639.386 270.283 646.801 269.045Z" fill="#6EA8FE"/>
<path d="M414.522 67.403C414.522 67.403 408.417 50.0846 404.008 55.5178C399.599 60.951 410.791 70.1196 410.791 70.1196L414.522 67.403Z" fill="#FFB9B9"/>
<path d="M443.349 50.4241L439.677 51.7868C439.677 51.7868 437.923 59.5927 438.601 60.951C439.279 62.3093 439.618 61.2906 438.601 64.0072C437.584 66.7238 434.531 73.8549 434.192 74.8736C433.853 75.8924 414.521 68.4217 414.521 64.6863C414.521 64.6863 410.452 69.4404 408.417 70.4591C408.417 70.4591 430.801 86.7588 433.853 88.7963C436.905 90.8337 438.601 89.815 441.314 87.438C444.027 85.0609 455.558 65.3655 455.558 65.3655L443.349 50.4241Z" fill="#0D6EFD"/>
<path d="M433.514 170.974C433.514 170.974 433.853 174.709 434.531 175.049C435.21 175.388 440.297 183.878 434.531 185.576C428.766 187.273 425.374 186.594 424.018 187.273C422.661 187.953 398.921 189.311 398.582 185.576C398.243 181.84 410.113 181.161 410.113 181.161C410.113 181.161 420.965 174.03 422.661 170.295C424.357 166.559 433.514 170.974 433.514 170.974Z" fill="#2F2E41"/>
<path d="M502.361 177.765C502.361 177.765 510.501 191.688 508.466 193.386C506.431 195.084 486.613 201.271 483.708 201.536C479.977 201.875 477.264 198.819 480.316 197.121C483.369 195.423 489.812 188.292 489.812 185.915V179.803L502.361 177.765Z" fill="#2F2E41"/>
<path d="M510.161 86.7588C510.161 86.7588 517.284 95.5878 506.092 109.85L487.438 133.62C487.438 133.62 498.969 151.958 499.309 161.466C499.648 170.974 502.022 168.936 502.7 173.011C503.378 177.086 506.431 175.049 504.057 178.105C501.683 181.161 492.865 183.878 490.152 181.501C489.218 180.646 488.49 179.591 488.02 178.415C487.55 177.24 487.351 175.973 487.438 174.709C487.438 173.351 482.69 165.541 482.351 163.164C482.012 160.787 469.464 141.431 469.464 141.431C469.464 141.431 465.394 129.885 470.142 123.433C474.89 116.981 478.028 107.83 478.028 107.83C478.028 107.83 464.037 124.791 454.202 128.866C454.202 128.866 450.471 129.545 451.15 131.243C451.828 132.941 451.15 133.96 450.132 135.658C449.115 137.356 441.993 157.051 439.619 162.145C437.245 167.239 438.262 170.295 435.549 171.993C432.836 173.69 420.626 172.332 420.626 170.634C420.626 168.936 422.322 164.522 423.339 162.145C424.357 159.768 432.496 132.262 431.818 127.508C431.14 122.754 432.157 116.302 437.244 113.585C442.332 110.869 468.107 88.7963 469.464 88.7963C470.82 88.7963 510.161 86.7588 510.161 86.7588Z" fill="#2F2E41"/>
<path d="M441.993 33.4453C449.859 33.4453 456.237 27.0599 456.237 19.1831C456.237 11.3063 449.859 4.92087 441.993 4.92087C434.126 4.92087 427.748 11.3063 427.748 19.1831C427.748 27.0599 434.126 33.4453 441.993 33.4453Z" fill="#FFB9B9"/>
<path d="M453.524 20.5414C453.524 20.5414 457.933 28.3516 463.359 29.3704C468.785 30.3892 449.115 46.0097 449.115 46.0097C449.115 46.0097 444.367 31.0683 440.297 30.3891C436.227 29.71 453.524 20.5414 453.524 20.5414Z" fill="#FFB9B9"/>
<path d="M439.619 52.4616C439.619 56.8761 452.845 69.4404 452.845 69.4404L465.394 79.9672C465.394 79.9672 465.733 83.7026 467.09 84.0422C468.446 84.3817 470.142 84.3817 468.785 86.4192C467.429 88.4567 464.037 92.8711 467.09 93.5503C468.01 93.6904 468.937 93.7789 469.867 93.8152C470.681 93.8627 471.637 93.9069 472.713 93.9476C475.222 94.0359 478.363 94.0936 481.764 94.0698C482.731 94.0665 483.715 94.0551 484.715 94.0359C497.538 93.7812 512.393 92.304 511.179 87.4379C509.144 79.2881 510.501 76.5715 506.092 72.157C501.683 67.7425 494.561 52.4615 494.561 52.4615C494.561 52.4615 480.316 28.3516 468.446 28.3516L465.98 27.703C464.835 27.4008 463.623 27.4671 462.517 27.8925C461.411 28.3179 460.467 29.0808 459.818 30.0733C457.437 33.7033 453.683 39.1569 451.489 40.9159C448.097 43.6325 447.568 41.6834 447.568 41.6834C447.568 41.6834 439.619 48.0471 439.619 52.4616Z" fill="#0D6EFD"/>
<path d="M469.803 104.077C469.803 104.077 459.967 119.358 466.072 122.075C472.177 124.791 475.568 106.115 475.568 106.115L469.803 104.077Z" fill="#FFB9B9"/>
<path d="M451.305 17.5722C450.758 17.5031 450.585 16.8124 450.493 16.2685C450 13.3555 447.832 10.5932 444.919 10.123C443.806 9.97464 442.673 10.066 441.598 10.3909C440.058 10.8142 438.611 11.5269 437.337 12.491C436.713 13.0619 435.992 13.5154 435.207 13.8299C434.673 13.9871 432.403 14.9973 431.873 15.1682C430.707 15.544 429.742 16.7659 428.542 16.524C427.393 16.2925 426.957 14.9036 426.772 13.745C426.352 11.1056 427.86 7.16726 429.361 4.9564C430.499 3.27867 432.426 2.31311 434.352 1.68495C436.608 0.999116 438.927 0.537822 441.274 0.307765C444.442 -0.0668929 447.724 -0.265669 450.76 0.714915C453.796 1.6955 456.561 4.09423 457.128 7.2378C457.246 7.89263 457.268 8.56336 457.413 9.21281C457.766 10.7972 458.813 12.1289 459.424 13.6326C459.864 14.7369 460.069 15.9215 460.024 17.1098C459.979 18.2982 459.686 19.464 459.164 20.5321C458.319 22.2349 456.848 23.8713 457.165 25.7463L454.548 23.68C454.17 23.4649 453.877 23.1263 453.718 22.7209C453.559 22.3155 453.544 21.8678 453.675 21.4525L454.055 18.1713C454.187 17.5768 454.127 16.9559 453.885 16.3973C452.722 14.3627 452.216 17.6873 451.305 17.5722Z" fill="#2F2E41"/>
<path opacity="0.1" d="M475.907 80.6464L472.713 93.9476C475.935 94.0631 480.198 94.1242 484.715 94.0359C485.855 90.613 486.943 87.044 487.778 83.7026C490.83 71.4779 485.743 52.8011 483.03 43.9721C480.316 35.1432 473.533 32.7661 473.533 32.7661C470.753 33.7453 468.126 35.1175 465.733 36.841C461.324 39.8972 475.907 80.6464 475.907 80.6464Z" fill="black"/>
<path opacity="0.1" d="M473.194 79.9673L469.867 93.8152C470.681 93.8627 471.638 93.9069 472.713 93.9476C475.222 94.0359 478.363 94.0937 481.764 94.0699C482.989 90.433 484.172 86.5958 485.064 83.0234C488.117 70.7987 483.03 52.122 480.316 43.293C477.603 34.464 471.668 44.1419 471.668 44.1419C471.668 44.1419 474.042 38.3691 469.633 41.4253C465.224 44.4815 473.194 79.9673 473.194 79.9673Z" fill="black"/>
<path d="M472.177 32.087C472.177 32.087 478.96 34.464 481.673 43.293C484.386 52.122 489.473 70.7987 486.421 83.0235C483.369 95.2482 476.925 110.529 476.925 110.529C476.925 110.529 470.481 105.775 468.107 106.794L474.551 79.9673C474.551 79.9673 459.967 39.2181 464.376 36.1619C466.769 34.4383 469.396 33.0662 472.177 32.087Z" fill="#0D6EFD"/>
<path d="M477.232 202.416L383.401 6.63794L226.508 82.023L284.209 202.416H477.232Z" fill="white"/>
<path d="M351.649 83.4852L268.317 123.525L270.799 128.704L354.131 88.664L351.649 83.4852Z" fill="#3F3D56"/>
<path d="M373.712 129.519L290.38 169.559L292.862 174.738L376.194 134.698L373.712 129.519Z" fill="#3F3D56"/>
<path d="M388.867 56.399L368.178 66.3399L378.106 87.0553L398.795 77.1144L388.867 56.399Z" fill="#3F3D56"/>
<path d="M410.93 102.433L390.241 112.374L400.169 133.089L420.858 123.149L410.93 102.433Z" fill="#3F3D56"/>
<path d="M390.293 42.0503L381.772 66.3237L370.286 62.2814L368.714 66.7591L384.657 72.3691L394.764 43.624L390.293 42.0503Z" fill="#22AF47"/>
<path d="M412.355 88.0842L403.835 112.358L392.35 108.316L390.778 112.793L406.72 118.403L416.827 89.658L412.355 88.0842Z" fill="#22AF47"/>
<path d="M9.05536 427.744L51.4476 418.677L42.3923 376.231L2.68385e-05 385.298L9.05536 427.744Z" fill="#F2F2F2"/>
<path d="M50.2687 364.89C50.2687 364.89 34.6979 376.026 39.8881 380.481C45.0784 384.935 55.4589 367.117 55.4589 367.117L50.2687 364.89Z" fill="#FFB9B9"/>
<path d="M122.191 381.965C122.191 381.965 119.225 419.085 118.484 424.282C117.742 429.479 117.001 476.25 115.518 481.447C114.035 486.644 112.552 499.265 112.552 499.265H103.654C103.654 499.265 104.396 476.25 102.171 467.342C99.9469 458.433 100.688 433.933 100.688 433.933C100.688 433.933 96.2395 390.132 98.464 384.193C100.688 378.253 122.191 381.965 122.191 381.965Z" fill="#FFB9B9"/>
<path d="M110.327 497.038C110.327 497.038 114.035 499.265 114.035 500.75C114.035 502.234 113.293 505.946 114.035 507.431C114.776 508.916 119.966 514.855 117.001 516.34C114.035 517.825 100.688 516.34 100.688 516.34C100.688 516.34 101.43 505.946 102.171 505.204C102.913 504.462 101.43 497.038 101.43 497.038H110.327Z" fill="#2F2E41"/>
<path d="M65.5101 381.056C65.5101 381.056 64.5681 418.282 64.7607 423.528C64.9532 428.774 60.7874 475.365 61.7173 480.689C62.6473 486.013 62.7989 498.72 62.7989 498.72L71.6474 499.655C71.6474 499.655 73.3227 476.69 76.4687 468.064C79.6148 459.438 81.4458 434.997 81.4458 434.997C81.4458 434.997 90.4619 391.904 88.8724 385.764C87.2829 379.624 65.5101 381.056 65.5101 381.056Z" fill="#FFB9B9"/>
<path d="M65.2446 496.739C65.2446 496.739 61.3242 498.564 61.1686 500.041C61.0129 501.518 61.3611 505.287 60.4681 506.686C59.5751 508.084 53.7909 513.445 56.5847 515.233C59.3785 517.022 72.8068 516.948 72.8068 516.948C72.8068 516.948 73.159 506.534 72.4995 505.718C71.84 504.901 74.093 497.674 74.093 497.674L65.2446 496.739Z" fill="#2F2E41"/>
<path d="M111.81 326.285C111.81 326.285 117.742 327.028 119.966 339.648C122.191 352.269 130.347 384.193 123.674 386.42C117.001 388.647 96.981 393.101 96.2395 391.617C95.4981 390.132 94.0152 386.42 94.0152 386.42C94.0152 386.42 96.2395 393.101 93.2737 393.101C90.3079 393.101 61.3907 388.647 62.1321 386.42C62.8736 384.193 64.3565 367.86 64.3565 367.86C64.3565 367.86 68.8053 340.391 73.2541 335.936C74.5416 334.699 75.5412 333.192 76.1819 331.524C76.8227 329.856 77.0888 328.068 76.9614 326.285H111.81Z" fill="#2F2E41"/>
<path d="M122.932 320.346C122.932 320.346 113.293 318.119 111.81 321.088C110.327 324.058 115.518 328.512 117.742 328.512C119.966 328.512 123.674 326.285 123.674 326.285L122.932 320.346Z" fill="#FFB9B9"/>
<path d="M102.913 257.242C110.284 257.242 116.259 251.259 116.259 243.879C116.259 236.498 110.284 230.515 102.913 230.515C95.5417 230.515 89.5664 236.498 89.5664 243.879C89.5664 251.259 95.5417 257.242 102.913 257.242Z" fill="#FFB9B9"/>
<path d="M100.688 253.53C100.688 253.53 98.4639 263.923 99.9469 263.923C101.43 263.923 88.8249 270.605 88.8249 270.605L79.1858 269.12L76.22 264.666C76.22 264.666 91.7907 254.272 91.7907 248.333C91.7907 242.394 100.688 253.53 100.688 253.53Z" fill="#FFB9B9"/>
<path d="M94.0151 263.923C94.0151 263.923 96.2395 262.439 96.981 262.439H102.913C103.654 262.439 113.293 264.666 113.293 264.666L119.225 298.074C119.225 298.074 108.844 315.149 116.259 328.512C116.259 328.512 114.035 327.028 103.654 327.77C93.2737 328.512 74.737 330.74 73.9956 330.74C73.2541 330.74 73.2541 324.8 73.9956 323.316C74.737 321.831 73.2541 322.573 73.2541 318.861C73.2541 315.149 71.0297 308.468 71.0297 308.468L60.6492 270.605C60.6492 270.605 73.9956 263.181 76.22 263.923C78.4444 264.666 85.1176 266.893 86.6005 266.151C88.0834 265.408 94.0151 263.923 94.0151 263.923Z" fill="#0D6EFD"/>
<path d="M111.069 265.408L113.293 264.666C113.293 264.666 117.742 263.923 122.932 268.378C128.123 272.832 147.401 286.195 147.401 286.195C147.401 286.195 154.815 292.135 152.591 298.816C150.367 305.498 146.659 321.831 135.537 321.088C135.537 321.088 128.864 329.997 125.157 328.512C121.449 327.028 118.484 321.088 120.708 320.346C122.932 319.604 128.864 312.18 128.864 312.18L121.449 298.074H119.225L111.069 293.62L111.069 265.408Z" fill="#0D6EFD"/>
<path d="M66.5809 269.863L60.6492 270.605C60.6492 270.605 55.4589 272.832 56.2004 282.484C56.9419 292.135 51.7516 335.936 53.976 341.133C53.976 341.133 46.5614 366.375 48.0443 367.117C49.5272 367.86 58.4248 372.314 57.6833 369.344C56.9419 366.375 65.8395 345.588 65.8395 345.588C65.8395 345.588 76.22 334.452 71.7712 318.861V306.24L66.5809 269.863Z" fill="#0D6EFD"/>
<path d="M114.02 256.798L104.594 258.854L103.383 254.207L103.849 259.017L88.6428 262.334L87.9741 259.769L88.2311 262.424L78.4918 264.548L76.4083 244.523C74.2663 236.306 82.0838 227.548 90.2906 225.403L93.9314 224.452C99.9591 222.877 110.916 224.309 112.489 230.344C109.735 240.867 105.042 252.402 114.02 256.798Z" fill="#2F2E41"/>
</g>
<defs>
<clipPath id="clip0_5_21">
<rect width="687" height="517" fill="white"/>
</clipPath>
</defs>
</svg>
